<?xml version="1.0" encoding="UTF-8"?>
<svg id="Camada_2" data-name="Camada 2" xmlns="http://www.w3.org/2000/svg" viewBox="0 0 54.6 54.6">
  <defs>
    <style>
      .cls-1 {
        stroke: #000;
        stroke-miterlimit: 10;
      }

      .cls-2 {
        fill: #fff;
      }

      .cls-3 {
        fill: #b5b5b5;
      }

      .cls-4 {
        fill: #858585;
      }

      .cls-5 {
        fill: #363636;
      }
    </style>
  </defs>
  <g id="Camada_1-2" data-name="Camada 1">
    <g id="circle">
      <circle class="cls-1" cx="27.3" cy="27.3" r="26.8"/>
    </g>
    <g id="logo">
      <path class="cls-5" d="m32.3,26.4l3.2-5.5,8.7,13.6v2.6-17.9c0-.4-.3-.8-.6-1.1l-15.7-9c-.4-.2-.8-.2-1.2,0l-.1.1h-.1l-15.2,8.8h-.1c-.1,0-.2.1-.2.1-.3.2-.5.5-.5.9v14.8l8-12.6c1-1.7,3.2-2.2,5.3-2.2l2.4.1-14.2,22.9,1.7,1,14.5-23.9h6.4l-14.5,24.4,6,3.5.7.4c.3.1.7.1,1,0l15.9-9.2-3,1.8-8.4-13.6Zm1.2,17.7l-6.1-9.5,3.7-6.3,8,12.6-5.6,3.2Z"/>
      <path class="cls-4" d="m27.4,34.6l6.1,9.5,5.6-3.2-8-12.6-3.7,6.3Z"/>
      <path class="cls-4" d="m44.2,37v-2.6l-8.7-13.6-3.2,5.5,8.4,13.7,3-1.8c.3-.2.5-.6.5-1v-.2Z"/>
      <path class="cls-2" d="m7.7,39.5l4.3,2.5,14.3-22.9-2.4-.1c-2.1,0-4.3.5-5.3,2.2l-8.1,12.6-2.8,4.1v1.6Z"/>
      <path class="cls-2" d="m34.5,19.1h-6.4l-14.4,23.8,5.1,2.9,1.4-2.3,14.3-24.4Z"/>
      <path class="cls-3" d="m46.9,19c-.1-1.3-.8-2.6-1.9-3.3l-15.9-9.1c-1.1-.6-2.5-.6-3.6,0-.1.1-15.4,8.9-15.4,8.9-.2.1-.4.2-.6.4-1,.7-1.6,1.9-1.7,3.1v18.9l2.7-4.2v-14.8c.1-.3.3-.6.5-.9.1-.1,15.6-9.1,15.7-9.1.4-.2.8-.2,1.2,0l15.7,9c.4.2.6.6.6,1.1v18.2c0,.4-.2.7-.5,1l-3,1.8-1.6.9-5.6,3.2-5.7,3.3c-.3.1-.7.1-1,0l-6.7-3.9-1.4,2.4,6,3.5c.2.1.4.2.5.3l.4.2c.4.2,1,.3,1.6.3.5,0,1-.1,1.5-.3l16.5-9.6c.9-.7,1.5-1.8,1.6-3v-18.3h.1Z"/>
    </g>
  </g>
</svg>