<?xml version="1.0" encoding="utf-8"?>
<!-- Generator: Adobe Illustrator 27.2.0, SVG Export Plug-In . SVG Version: 6.00 Build 0)  -->
<svg version="1.1" id="Layer_1" xmlns="http://www.w3.org/2000/svg" xmlns:xlink="http://www.w3.org/1999/xlink" x="0px" y="0px"
	 viewBox="0 0 84 84" style="enable-background:new 0 0 84 84;" xml:space="preserve">
<style type="text/css">
	.st0{clip-path:url(#SVGID_00000124159270620184104630000017239048986476626849_);}
	.st1{fill:#FFFFFF;}
	.st2{fill-rule:evenodd;clip-rule:evenodd;}
</style>
<g>
	<defs>
		<rect id="SVGID_1_" width="83.9" height="84"/>
	</defs>
	<clipPath id="SVGID_00000145738427782057291780000010700926851372358040_">
		<use xlink:href="#SVGID_1_"  style="overflow:visible;"/>
	</clipPath>
	<g style="clip-path:url(#SVGID_00000145738427782057291780000010700926851372358040_);">
		<path class="st1" d="M67.9,14.4H16v47.1h51.8V14.4z"/>
		<path class="st2" d="M83.9,42c0,23.2-18.8,41.9-41.9,41.9C18.8,83.9,0,65.2,0,42C0,18.8,18.8,0.1,42,0.1
			C65.1,0.1,83.9,18.8,83.9,42z M30.1,58.7h-8.1c-1.7,0-2.6,0-3.1-0.3c-0.6-0.4-0.9-1-0.9-1.6c0-0.6,0.4-1.3,1.2-2.8l20.1-35.4
			c0.9-1.5,1.3-2.3,1.8-2.5c0.6-0.3,1.3-0.3,1.9,0c0.5,0.3,1,1,1.8,2.5l4.1,7.2l0,0c0.9,1.6,1.4,2.4,1.6,3.3c0.2,0.9,0.2,1.9,0,2.9
			c-0.2,0.9-0.7,1.7-1.6,3.3L38.4,53.9l0,0c-0.9,1.6-1.4,2.5-2.1,3.1c-0.7,0.7-1.6,1.2-2.5,1.5C33,58.7,32,58.7,30.1,58.7z
			 M50.6,58.7h11.7c1.7,0,2.6,0,3.1-0.3c0.6-0.4,0.9-1,0.9-1.6c0-0.6-0.4-1.3-1.2-2.7c0,0-0.1-0.1-0.1-0.1l-5.8-10l-0.1-0.1
			c-0.8-1.4-1.2-2.1-1.8-2.4c-0.6-0.3-1.3-0.3-1.9,0c-0.5,0.3-1,1-1.8,2.5l-5.8,10l0,0c-0.9,1.5-1.3,2.2-1.2,2.8
			c0,0.7,0.4,1.3,0.9,1.6C48.1,58.7,48.9,58.7,50.6,58.7z"/>
	</g>
</g>
</svg>
