<?xml version="1.0" encoding="UTF-8"?>
<svg id="Camada_2" data-name="Camada 2" xmlns="http://www.w3.org/2000/svg" viewBox="0 0 219.6 219.6">
  <defs>
    <style>
      .cls-1 {
        fill: #fff;
      }
    </style>
  </defs>
  <g id="Camada_1-2" data-name="Camada 1">
    <g id="circle">
      <circle cx="109.8" cy="109.8" r="109.8"/>
    </g>
    <g id="Layer_1" data-name="Layer 1">
      <g>
        <path class="cls-1" d="m90.1,144.1c-3.2,0-5.8-2.2-6.3-5.4l-17.9-105.3c-.3-1.7.1-3.4,1.1-4.8,1-1.4,2.5-2.3,4.2-2.6,3.5-.6,6.8,1.8,7.4,5.3l17.9,105.4c.3,1.7-.1,3.4-1.1,4.8-1,1.4-2.5,2.3-4.2,2.6-.3,0-.7,0-1.1,0Z"/>
        <path class="cls-1" d="m90.1,144.1c-3.2,0-5.8-2.2-6.3-5.4l-17.9-105.3c-.3-1.7.1-3.4,1.1-4.8,1-1.4,2.5-2.3,4.2-2.6,3.5-.6,6.8,1.8,7.4,5.3l17.9,105.4c.3,1.7-.1,3.4-1.1,4.8-1,1.4-2.5,2.3-4.2,2.6-.3,0-.7,0-1.1,0Z"/>
        <path class="cls-1" d="m120.2,95.5c-10.2,0-19.8,3.1-27.8,8.3l2.2,12.8c6.8-6,15.8-9.6,25.6-9.6,21.5,0,39,17.5,39,39s-17.5,39-39,39-39-17.5-39-39c0-2.9.3-5.7.9-8.4l-3.5-20.3c-5.6,8.1-9,18-9,28.7,0,27.9,22.7,50.5,50.5,50.5s50.5-22.7,50.5-50.5-22.6-50.5-50.4-50.5Z"/>
        <g>
          <circle class="cls-1" cx="117.4" cy="168.6" r="6.9"/>
          <circle class="cls-1" cx="138.9" cy="160.6" r="6.9"/>
          <circle class="cls-1" cx="122" cy="145.9" r="6.9"/>
          <circle class="cls-1" cx="100.7" cy="152.9" r="6.9"/>
          <circle class="cls-1" cx="143.3" cy="138.8" r="6.9"/>
          <circle class="cls-1" cx="126.6" cy="123.1" r="6.9"/>
          <circle class="cls-1" cx="105.1" cy="131.1" r="6.9"/>
        </g>
      </g>
    </g>
  </g>
</svg>