<?xml version="1.0" encoding="utf-8"?>
<!-- Generator: Adobe Illustrator 27.2.0, SVG Export Plug-In . SVG Version: 6.00 Build 0)  -->
<svg version="1.1" id="Layer_1" xmlns="http://www.w3.org/2000/svg" xmlns:xlink="http://www.w3.org/1999/xlink" x="0px" y="0px"
	 viewBox="0 0 84 84" style="enable-background:new 0 0 84 84;" xml:space="preserve">
<style type="text/css">
	.st0{clip-path:url(#SVGID_00000046316774662315480090000002417156194372276890_);}
	.st1{fill-rule:evenodd;clip-rule:evenodd;fill:#FFFFFF;}
</style>
<g>
	<defs>
		<rect id="SVGID_1_" width="84" height="84"/>
	</defs>
	<clipPath id="SVGID_00000086666015230537430540000004878551706568374413_">
		<use xlink:href="#SVGID_1_"  style="overflow:visible;"/>
	</clipPath>
	<g style="clip-path:url(#SVGID_00000086666015230537430540000004878551706568374413_);">
		<path d="M42,84c23.2,0,42-18.8,42-42S65.2,0,42,0S0,18.8,0,42S18.8,84,42,84z"/>
		<path class="st1" d="M45.2,33.9l9.4-5.5v11L45.2,33.9z M54.6,57.5L42,64.8l-12.6-7.4V44.6L42,52l12.6-7.3V57.5z M29.4,28.4
			l9.4,5.5l-9.4,5.5V28.4z M43.6,36.5L53,42l-9.5,5.5V36.5z M40.4,47.5L31,42l9.4-5.5V47.5z M53,25.7L42,32l-11-6.3l11-6.6L53,25.7z
			 M26.2,24.7v34.4L42,68l15.8-8.9V24.7L42,15.8L26.2,24.7z"/>
	</g>
</g>
</svg>
