<?xml version="1.0" encoding="utf-8"?>
<!-- Generator: Adobe Illustrator 27.2.0, SVG Export Plug-In . SVG Version: 6.00 Build 0)  -->
<svg version="1.1" id="Layer_1" xmlns="http://www.w3.org/2000/svg" xmlns:xlink="http://www.w3.org/1999/xlink" x="0px" y="0px"
	 viewBox="0 0 84 84" style="enable-background:new 0 0 84 84;" xml:space="preserve">
<style type="text/css">
	.st0{clip-path:url(#SVGID_00000129900779184096725340000001683829810298465157_);}
	.st1{fill:#FFFFFF;}
</style>
<g>
	<defs>
		<rect id="SVGID_1_" width="84" height="84"/>
	</defs>
	<clipPath id="SVGID_00000047058471381900542320000007270831921102622117_">
		<use xlink:href="#SVGID_1_"  style="overflow:visible;"/>
	</clipPath>
	<g style="clip-path:url(#SVGID_00000047058471381900542320000007270831921102622117_);">
		<path d="M42,84c23.2,0,42-18.8,42-42S65.2,0,42,0S0,18.8,0,42S18.8,84,42,84z"/>
		<path class="st1" d="M30.5,53.8c-2.5,0-4.6-0.6-6.2-1.8c-1.6-1.2-2.4-3-2.4-5.3c0-0.5,0.1-1.1,0.2-1.8c0.3-1.6,0.7-3.5,1.2-5.7
			c1.4-6,5.2-9,11.2-9c1.6,0,3.1,0.3,4.4,0.8c1.3,0.5,2.3,1.4,3.1,2.5c0.7,1.1,1.1,2.4,1.1,3.9c0,0.5-0.1,1-0.2,1.7
			c-0.3,1.9-0.7,3.8-1.1,5.7c-0.7,3-2,5.2-3.9,6.7C36,53,33.5,53.8,30.5,53.8z M30.9,49.1c1.2,0,2.2-0.4,3-1.1
			c0.9-0.7,1.5-1.8,1.8-3.3c0.5-2,0.9-3.8,1.1-5.4c0.1-0.5,0.1-0.9,0.1-1.4c0-2-1-3-3-3c-1.2,0-2.2,0.4-3.1,1.1
			c-0.8,0.7-1.4,1.8-1.8,3.3c-0.4,1.5-0.8,3.2-1.1,5.4c-0.1,0.4-0.1,0.9-0.1,1.4C27.8,48.1,28.9,49.1,30.9,49.1z"/>
		<path class="st1" d="M44.4,53.4c-0.2,0-0.4-0.1-0.5-0.2c-0.1-0.2-0.1-0.4-0.1-0.6l4.4-21.2c0-0.2,0.2-0.4,0.4-0.6
			c0.2-0.2,0.4-0.2,0.6-0.2h8.5c2.4,0,4.3,0.5,5.7,1.5c1.4,1,2.2,2.4,2.2,4.3c0,0.5-0.1,1.1-0.2,1.7c-0.5,2.5-1.6,4.4-3.2,5.6
			c-1.6,1.2-3.8,1.8-6.6,1.8h-4.3l-1.5,7.2c0,0.2-0.2,0.4-0.4,0.6c-0.2,0.2-0.4,0.2-0.6,0.2H44.4z M55.7,41c0.9,0,1.7-0.3,2.3-0.8
			c0.7-0.5,1.1-1.2,1.3-2.2c0.1-0.4,0.1-0.7,0.1-1c0-0.6-0.2-1.1-0.5-1.4c-0.4-0.3-1-0.5-1.9-0.5h-3.8L52.1,41H55.7z"/>
	</g>
</g>
</svg>
