<?xml version="1.0" encoding="utf-8"?>
<!-- Generator: Adobe Illustrator 27.2.0, SVG Export Plug-In . SVG Version: 6.00 Build 0)  -->
<svg version="1.1" xmlns="http://www.w3.org/2000/svg" xmlns:xlink="http://www.w3.org/1999/xlink" x="0px" y="0px"
	 viewBox="0 0 84 84" style="enable-background:new 0 0 84 84;" xml:space="preserve">
<style type="text/css">
	.st0{display:none;}
	.st1{display:inline;fill:#FFFFFF;}
	.st2{display:inline;}
	.st3{fill:#FFFFFF;}
</style>
<g id="Layer_1" class="st0">
	<circle class="st1" cx="42" cy="42" r="42"/>
	<g class="st2">
		<defs>
			<rect id="SVGID_1_" x="17" y="20" width="50.4" height="44"/>
		</defs>
		<clipPath id="SVGID_00000178897273498666078580000005613924706801203840_">
			<use xlink:href="#SVGID_1_"  style="overflow:visible;"/>
		</clipPath>
	</g>
</g>
<g id="circle">
	<circle cx="42" cy="42" r="37.5"/>
</g>
<g id="logo">
	<g>
		<path class="st3" d="M54.9,33.4c-0.9-0.5-2.1-0.5-3.2,0l-7.4,4.3l-5,2.8l-7.2,4.3c-0.9,0.5-2.1,0.5-3.2,0l-5.6-3.4
			c-0.9-0.5-1.6-1.6-1.6-2.8v-6.6c0-1.1,0.5-2.1,1.6-2.8l5.6-3.3c0.9-0.5,2.1-0.5,3.2,0l5.6,3.4c0.9,0.5,1.6,1.6,1.6,2.8v4.3l5-2.9
			v-4.5c0-1.1-0.5-2.1-1.6-2.8l-10.5-6.2c-0.9-0.5-2.1-0.5-3.2,0l-10.8,6.3c-1.1,0.5-1.6,1.6-1.6,2.6v12.3c0,1.1,0.5,2.1,1.6,2.8
			l10.6,6.2c0.9,0.5,2.1,0.5,3.2,0l7.2-4.2l5-2.9l7.2-4.2c0.9-0.5,2.1-0.5,3.2,0l5.6,3.3C61.4,43,62,44,62,45.2v6.6
			c0,1.1-0.5,2.1-1.6,2.8l-5.5,3.3c-0.9,0.5-2.1,0.5-3.2,0l-5.6-3.3c-0.9-0.5-1.6-1.6-1.6-2.8v-4.2l-5,2.9v4.3
			c0,1.1,0.5,2.1,1.6,2.8l10.6,6.2c0.9,0.5,2.1,0.5,3.2,0l10.6-6.2c0.9-0.5,1.6-1.6,1.6-2.8V42.3c0-1.1-0.5-2.1-1.6-2.8L54.9,33.4z"
			/>
	</g>
</g>
</svg>
