<?xml version="1.0" encoding="utf-8"?>
<!-- Generator: Adobe Illustrator 27.2.0, SVG Export Plug-In . SVG Version: 6.00 Build 0)  -->
<svg version="1.1" id="Layer_1" xmlns="http://www.w3.org/2000/svg" xmlns:xlink="http://www.w3.org/1999/xlink" x="0px" y="0px"
	 viewBox="0 0 84 84" style="enable-background:new 0 0 84 84;" xml:space="preserve">
<style type="text/css">
	.st0{clip-path:url(#SVGID_00000113349067096683398080000007337942876191981210_);}
	.st1{fill:#FFFFFF;}
</style>
<circle cx="42" cy="42" r="42"/>
<g>
	<g>
		<defs>
			<rect id="SVGID_1_" x="21" y="24" width="42" height="37"/>
		</defs>
		<clipPath id="SVGID_00000047745866098219459740000005170794571573841308_">
			<use xlink:href="#SVGID_1_"  style="overflow:visible;"/>
		</clipPath>
		<g style="clip-path:url(#SVGID_00000047745866098219459740000005170794571573841308_);">
			<path class="st1" d="M62.8,53.2l-6.9,7.3c-0.2,0.2-0.3,0.3-0.5,0.4C55.1,61,54.9,61,54.7,61H21.8c-0.2,0-0.3,0-0.4-0.1
				s-0.2-0.2-0.3-0.3S21,60.2,21,60.1c0-0.2,0.1-0.3,0.2-0.4l6.9-7.3c0.2-0.2,0.3-0.3,0.5-0.4c0.2-0.1,0.4-0.1,0.6-0.1h32.9
				c0.2,0,0.3,0,0.4,0.1c0.1,0.1,0.2,0.2,0.3,0.3s0.1,0.3,0.1,0.5S62.9,53.1,62.8,53.2z M55.9,38.4c-0.2-0.2-0.3-0.3-0.5-0.4
				c-0.2-0.1-0.4-0.1-0.6-0.1h-33c-0.2,0-0.3,0-0.4,0.1s-0.2,0.2-0.3,0.3S21,38.7,21,38.8c0,0.2,0.1,0.3,0.2,0.4l6.9,7.3
				c0.2,0.2,0.3,0.3,0.5,0.4S29,47,29.2,47h32.9c0.2,0,0.3,0,0.4-0.1c0.1-0.1,0.2-0.2,0.3-0.3s0.1-0.3,0.1-0.5s-0.1-0.3-0.2-0.4
				L55.9,38.4z M21.8,33.2h32.9c0.2,0,0.4,0,0.6-0.1c0.2-0.1,0.4-0.2,0.5-0.4l6.9-7.3c0.1-0.1,0.2-0.3,0.2-0.4c0-0.2,0-0.3-0.1-0.5
				c-0.1-0.1-0.2-0.3-0.3-0.3c0-0.2-0.1-0.2-0.3-0.2H29.3c-0.2,0-0.4,0-0.6,0.1s-0.4,0.2-0.5,0.4l-6.9,7.3c-0.1,0.1-0.2,0.3-0.2,0.4
				c0,0.2,0,0.3,0.1,0.5c0.1,0.1,0.2,0.3,0.3,0.3C21.5,33.1,21.6,33.2,21.8,33.2z"/>
		</g>
	</g>
</g>
</svg>
