<svg id="Layer_1" data-name="Layer 1" xmlns="http://www.w3.org/2000/svg" viewBox="0 0 862.85 133.06"><defs><style>.cls-1{fill:#222326;}.cls-2{fill:none;stroke:#222326;stroke-miterlimit:10;stroke-width:9.65px;}</style></defs><title>logo_text</title><path class="cls-1" d="M217.39,91.53a12,12,0,0,1-.78-2.11c-.21-.79-.39-1.63-.55-2.52a16.49,16.49,0,0,1-2.43,2.15,16.7,16.7,0,0,1-3,1.77A18.78,18.78,0,0,1,206.9,92a20.68,20.68,0,0,1-4.35.44,21.35,21.35,0,0,1-7-1.1,16.61,16.61,0,0,1-5.48-3.08,13.91,13.91,0,0,1-3.57-4.69,13.72,13.72,0,0,1-1.28-5.94q0-7.83,5.84-12.11t17.43-4.29h7.1V58.31a7.2,7.2,0,0,0-2.33-5.66q-2.34-2.09-6.74-2.08c-2.59,0-4.49.55-5.68,1.67a5.82,5.82,0,0,0-1.79,4.47H186.33a13.48,13.48,0,0,1,1.39-6,14.74,14.74,0,0,1,4.08-5,20.4,20.4,0,0,1,6.55-3.41A28.64,28.64,0,0,1,207.22,41a30.61,30.61,0,0,1,8.36,1.1,20.08,20.08,0,0,1,6.71,3.26,14.83,14.83,0,0,1,4.45,5.43,17,17,0,0,1,1.6,7.58V79.66a35.35,35.35,0,0,0,.51,6.6,16.67,16.67,0,0,0,1.46,4.49v.78Zm-12.14-8.94a13.53,13.53,0,0,0,3.57-.45,13.84,13.84,0,0,0,3-1.2,10,10,0,0,0,2.29-1.67,8.5,8.5,0,0,0,1.51-1.9V68.85h-6.5a19.74,19.74,0,0,0-5.09.57,9.76,9.76,0,0,0-3.43,1.6,6.34,6.34,0,0,0-2,2.48,7.61,7.61,0,0,0-.65,3.14,5.61,5.61,0,0,0,1.81,4.26Q201.58,82.6,205.25,82.59Z" transform="translate(-0.79 -1.52)"/><path class="cls-1" d="M285.37,41a34.17,34.17,0,0,1,5.34.39,32,32,0,0,1,4,.85L292.79,55a45.76,45.76,0,0,0-5.15-.89,44.49,44.49,0,0,0-5-.3A15.83,15.83,0,0,0,274,55.83a12.48,12.48,0,0,0-4.83,5.92V91.53H256.46V42h11.87l.59,8.11a22.76,22.76,0,0,1,7.24-6.62A18.3,18.3,0,0,1,285.37,41Z" transform="translate(-0.79 -1.52)"/><path class="cls-1" d="M344.83,76l4.3-34h11.69l-8.89,49.58H340.75L334.24,60,328,91.53H316.78L307.9,42h11.63l4.31,34.18L330.07,42h8.52Z" transform="translate(-0.79 -1.52)"/><path class="cls-1" d="M400.53,92.45a27.67,27.67,0,0,1-10.4-1.88,24.75,24.75,0,0,1-8-5.11A22.41,22.41,0,0,1,377,77.85a24.4,24.4,0,0,1-1.81-9.37V66.65a29,29,0,0,1,1.79-10.38,24,24,0,0,1,5-8.09,22.69,22.69,0,0,1,7.61-5.27,26,26,0,0,1,19.13-.11,19.89,19.89,0,0,1,7.1,5,21.5,21.5,0,0,1,4.42,7.72,31.17,31.17,0,0,1,1.52,10v5.4H388.06a14,14,0,0,0,1.49,4.61,12.59,12.59,0,0,0,6.85,5.93,14.13,14.13,0,0,0,4.91.83,18.8,18.8,0,0,0,3.73-.37,17.59,17.59,0,0,0,3.55-1.08A16,16,0,0,0,411.75,79a12.09,12.09,0,0,0,2.57-2.48l6.37,6.88a18.24,18.24,0,0,1-3.1,3.32,20.52,20.52,0,0,1-4.49,2.89,28.78,28.78,0,0,1-5.75,2A28.37,28.37,0,0,1,400.53,92.45ZM399,51.35a10.1,10.1,0,0,0-3.94.75,9.3,9.3,0,0,0-3.14,2.18,12.31,12.31,0,0,0-2.26,3.39,18.75,18.75,0,0,0-1.38,4.4h20.9v-1a12.19,12.19,0,0,0-.78-3.8,9,9,0,0,0-2-3.1,9.17,9.17,0,0,0-3.14-2.06A11.41,11.41,0,0,0,399,51.35Z" transform="translate(-0.79 -1.52)"/><path class="cls-1" d="M470.79,91.53a11.24,11.24,0,0,1-.77-2.11,24.72,24.72,0,0,1-.55-2.52A17,17,0,0,1,467,89.05,16.79,16.79,0,0,1,464,90.82,18.35,18.35,0,0,1,460.3,92a20.55,20.55,0,0,1-4.35.44,21.35,21.35,0,0,1-7-1.1,16.56,16.56,0,0,1-5.47-3.08,13.73,13.73,0,0,1-4.86-10.63q0-7.83,5.84-12.11t17.44-4.29H469V58.31a7.2,7.2,0,0,0-2.34-5.66q-2.34-2.09-6.73-2.08c-2.6,0-4.49.55-5.69,1.67a5.82,5.82,0,0,0-1.78,4.47H439.73a13.49,13.49,0,0,1,1.4-6,14.83,14.83,0,0,1,4.07-5,20.45,20.45,0,0,1,6.56-3.41A28.57,28.57,0,0,1,460.62,41a30.69,30.69,0,0,1,8.37,1.1,20.17,20.17,0,0,1,6.71,3.26,14.9,14.9,0,0,1,4.44,5.43,17,17,0,0,1,1.61,7.58V79.66a35.46,35.46,0,0,0,.5,6.6,16.67,16.67,0,0,0,1.47,4.49v.78Zm-12.14-8.94a13.55,13.55,0,0,0,3.58-.45,14.05,14.05,0,0,0,3-1.2,10.24,10.24,0,0,0,2.29-1.67,8.79,8.79,0,0,0,1.51-1.9V68.85H462.5a19.66,19.66,0,0,0-5.08.57A9.73,9.73,0,0,0,454,71a6.43,6.43,0,0,0-2,2.48,7.6,7.6,0,0,0-.64,3.14,5.58,5.58,0,0,0,1.81,4.26C454.38,82,456.21,82.59,458.65,82.59Z" transform="translate(-0.79 -1.52)"/><path class="cls-1" d="M524.25,76.82l.64,3.57.64-3.43,10.91-35h13.28L530.89,91.53h-12L500,42H513.3Z" transform="translate(-0.79 -1.52)"/><path class="cls-1" d="M590.58,92.45a27.67,27.67,0,0,1-10.4-1.88,24.75,24.75,0,0,1-8-5.11A22.41,22.41,0,0,1,567,77.85a24.4,24.4,0,0,1-1.81-9.37V66.65A29,29,0,0,1,567,56.27a24.05,24.05,0,0,1,5-8.09,22.55,22.55,0,0,1,7.6-5.27,26,26,0,0,1,19.13-.11,19.8,19.8,0,0,1,7.1,5,21.52,21.52,0,0,1,4.43,7.72,31.46,31.46,0,0,1,1.51,10v5.4H578.12a13.94,13.94,0,0,0,1.48,4.61,12.59,12.59,0,0,0,6.85,5.93,14.17,14.17,0,0,0,4.91.83,18.8,18.8,0,0,0,3.73-.37,17.59,17.59,0,0,0,3.55-1.08A15.69,15.69,0,0,0,601.8,79a12.09,12.09,0,0,0,2.57-2.48l6.37,6.88a18.52,18.52,0,0,1-3.09,3.32,21,21,0,0,1-4.49,2.89,29.23,29.23,0,0,1-5.75,2A28.51,28.51,0,0,1,590.58,92.45Zm-1.51-41.1a10.06,10.06,0,0,0-3.94.75A9.11,9.11,0,0,0,582,54.28a12.34,12.34,0,0,0-2.27,3.39,18.29,18.29,0,0,0-1.37,4.4h20.89v-1a11.91,11.91,0,0,0-.78-3.8,9,9,0,0,0-2-3.1,9.17,9.17,0,0,0-3.14-2.06A11.35,11.35,0,0,0,589.07,51.35Z" transform="translate(-0.79 -1.52)"/><path class="cls-1" d="M642.75,84.15a9,9,0,0,1,.6-3.32,7.32,7.32,0,0,1,1.74-2.66,8.3,8.3,0,0,1,2.79-1.78,10.61,10.61,0,0,1,7.42,0,8.15,8.15,0,0,1,2.78,1.78,8,8,0,0,1,1.74,2.66,8.83,8.83,0,0,1,.62,3.32,8.51,8.51,0,0,1-.62,3.25A8,8,0,0,1,658.08,90a7.83,7.83,0,0,1-2.78,1.76,10.91,10.91,0,0,1-7.42,0A8,8,0,0,1,645.09,90a7.32,7.32,0,0,1-1.74-2.64A8.7,8.7,0,0,1,642.75,84.15Z" transform="translate(-0.79 -1.52)"/><path class="cls-1" d="M691.48,66.28a31,31,0,0,1,1.56-10,23.2,23.2,0,0,1,4.56-8A21.09,21.09,0,0,1,704.93,43a26.51,26.51,0,0,1,19.86,0,20.93,20.93,0,0,1,7.36,5.31,23.2,23.2,0,0,1,4.56,8,31,31,0,0,1,1.56,10v1a31.16,31.16,0,0,1-1.56,10.06,23.23,23.23,0,0,1-4.54,8,20.56,20.56,0,0,1-7.33,5.29,24.45,24.45,0,0,1-9.9,1.9,24.71,24.71,0,0,1-10-1.9,20.75,20.75,0,0,1-7.38-5.29,23.11,23.11,0,0,1-4.56-8,31.16,31.16,0,0,1-1.56-10.06Zm12.74,1a27.22,27.22,0,0,0,.6,5.85,14.59,14.59,0,0,0,1.88,4.76,9.18,9.18,0,0,0,8.24,4.42,9.2,9.2,0,0,0,4.81-1.19A9.39,9.39,0,0,0,723,77.85a15.26,15.26,0,0,0,1.86-4.76,27.88,27.88,0,0,0,.59-5.85v-1a27.14,27.14,0,0,0-.59-5.73A15.46,15.46,0,0,0,723,55.79a9.28,9.28,0,0,0-3.28-3.25,9.58,9.58,0,0,0-13,3.25,14.77,14.77,0,0,0-1.88,4.76,26.5,26.5,0,0,0-.6,5.73Z" transform="translate(-0.79 -1.52)"/><path class="cls-1" d="M792.18,41a34,34,0,0,1,5.33.39,31.76,31.76,0,0,1,4,.85L799.6,55a45.76,45.76,0,0,0-5.15-.89,44.49,44.49,0,0,0-5-.3,15.8,15.8,0,0,0-8.59,2.06A12.5,12.5,0,0,0,776,61.75V91.53H763.27V42h11.86l.6,8.11A22.65,22.65,0,0,1,783,43.44,18.3,18.3,0,0,1,792.18,41Z" transform="translate(-0.79 -1.52)"/><path class="cls-1" d="M818.64,66.37A36,36,0,0,1,820,56.06a24.1,24.1,0,0,1,4-8,18.13,18.13,0,0,1,6.32-5.18A18.74,18.74,0,0,1,838.76,41a17.4,17.4,0,0,1,7.47,1.47,15.06,15.06,0,0,1,5.31,4.17l.51-4.72h11.59v48a22.21,22.21,0,0,1-1.72,9,18.62,18.62,0,0,1-4.81,6.64,20.89,20.89,0,0,1-7.42,4.1,31,31,0,0,1-9.56,1.4,28,28,0,0,1-4.81-.46,28.52,28.52,0,0,1-5.08-1.42,24.43,24.43,0,0,1-4.77-2.45,16.33,16.33,0,0,1-3.85-3.55l5.73-7.75a16.93,16.93,0,0,0,5.5,4.2,15.42,15.42,0,0,0,6.64,1.44c3.58,0,6.36-1,8.36-2.86s3-4.63,3-8.14V87.22a16.14,16.14,0,0,1-5.25,3.85,16.47,16.47,0,0,1-6.94,1.38,17.86,17.86,0,0,1-8.32-1.91,18.78,18.78,0,0,1-6.3-5.24,24.17,24.17,0,0,1-4-8,34.4,34.4,0,0,1-1.4-10Zm12.79,1a25.26,25.26,0,0,0,.62,5.79,14.5,14.5,0,0,0,1.9,4.68,9.53,9.53,0,0,0,3.25,3.13,9.06,9.06,0,0,0,4.67,1.15,10.85,10.85,0,0,0,5.53-1.28,9.45,9.45,0,0,0,3.46-3.58v-21a9.16,9.16,0,0,0-3.46-3.6A10.75,10.75,0,0,0,842,51.39a9,9,0,0,0-4.68,1.17A9.83,9.83,0,0,0,834,55.77a15.25,15.25,0,0,0-1.95,4.76,25.37,25.37,0,0,0-.64,5.84Z" transform="translate(-0.79 -1.52)"/><path class="cls-1" d="M77.61,91.53a10.57,10.57,0,0,1-.78-2.11,24.72,24.72,0,0,1-.55-2.52,16.49,16.49,0,0,1-2.43,2.15,16.79,16.79,0,0,1-3,1.77A18.35,18.35,0,0,1,67.11,92a20.55,20.55,0,0,1-4.35.44,21.44,21.44,0,0,1-7-1.1,16.56,16.56,0,0,1-5.47-3.08,13.73,13.73,0,0,1-4.86-10.63q0-7.83,5.84-12.11t17.44-4.29h7.1V58.31a7.2,7.2,0,0,0-2.34-5.66c-1.55-1.39-3.8-2.08-6.73-2.08-2.6,0-4.49.55-5.68,1.67a5.79,5.79,0,0,0-1.79,4.47H46.54a13.49,13.49,0,0,1,1.4-6,14.64,14.64,0,0,1,4.08-5,20.29,20.29,0,0,1,6.55-3.41A28.57,28.57,0,0,1,67.43,41a30.64,30.64,0,0,1,8.37,1.1,20.08,20.08,0,0,1,6.71,3.26A14.9,14.9,0,0,1,87,50.82a17,17,0,0,1,1.61,7.58V79.66a36.34,36.34,0,0,0,.5,6.6,17,17,0,0,0,1.47,4.49v.78ZM65.46,82.59A13.55,13.55,0,0,0,69,82.14a14.05,14.05,0,0,0,3-1.2,10.24,10.24,0,0,0,2.29-1.67,8.79,8.79,0,0,0,1.51-1.9V68.85H69.31a19.66,19.66,0,0,0-5.08.57A9.81,9.81,0,0,0,60.79,71a6.43,6.43,0,0,0-2,2.48,7.6,7.6,0,0,0-.64,3.14A5.58,5.58,0,0,0,60,80.9Q61.81,82.6,65.46,82.59Z" transform="translate(-0.79 -1.52)"/><circle class="cls-2" cx="66.53" cy="66.53" r="61.7"/></svg>