<svg width="403" height="62" viewBox="0 0 403 62" fill="none" xmlns="http://www.w3.org/2000/svg">
<path fill-rule="evenodd" clip-rule="evenodd" d="M0.875732 12.5203V26.8307H12.2201V12.5203H0.875732ZM12.2945 12.5147H37.7035V1.74584H12.2945V12.5147ZM401.795 19.5842H387.491L373.516 34.6277V0.512695H362.584V60.0292H373.516V49.3425L378.038 44.5746L388.725 60.0292H402.124L385.601 36.6007L401.795 19.5842ZM12.3022 60.0292V37.3406H34.9086V26.9005H12.2947V37.3939H0.875732V60.0292H12.3022ZM66.4214 19.4199C65.5993 19.3376 64.7772 19.2555 63.8729 19.2555C60.4204 19.2555 54.8304 20.2419 52.3643 25.5852V19.5842H41.7599V60.0292H52.693V41.533C52.693 32.8192 57.5432 30.1065 63.1331 30.1065C64.1195 30.1065 65.1882 30.1888 66.4214 30.4354V19.4199ZM84.1351 61.18C75.5037 61.18 70.2426 55.3435 70.2426 49.0137C70.2426 41.7796 75.5858 37.7515 82.3266 36.7651L92.2735 35.2854C94.5752 34.9566 95.315 33.8058 95.315 32.4083C95.315 29.5311 93.0955 27.1471 88.4921 27.1471C83.7242 27.1471 81.0936 30.1888 80.7647 33.7235L71.0646 31.6684C71.7222 25.3386 77.5588 18.3512 88.4099 18.3512C101.234 18.3512 106.002 25.5852 106.002 33.7235V53.6171C106.002 55.7545 106.248 58.6316 106.495 60.0292H96.4659C96.2193 58.9605 96.055 56.7409 96.055 55.179C93.9997 58.385 90.1361 61.18 84.1351 61.18ZM81.1758 48.3561C81.1758 50.7399 82.9021 53.0418 86.437 53.0418C91.0404 53.0418 95.315 50.8222 95.315 43.6704V41.8619L86.1904 43.2593C83.3953 43.6704 81.1758 45.2323 81.1758 48.3561ZM123.508 60.0292V36.3541C123.508 31.915 126.303 28.3803 131.071 28.3803C136.003 28.3803 138.222 31.6684 138.222 36.0253V60.0292H149.073V36.3541C149.073 31.9973 151.869 28.3803 156.554 28.3803C161.569 28.3803 163.705 31.6684 163.705 36.0253V60.0292H174.311V33.8058C174.311 22.9546 167.158 18.4334 159.677 18.4334C154.335 18.4334 150.06 20.2419 146.854 25.1742C144.799 20.8174 140.36 18.4334 134.852 18.4334C130.413 18.4334 125.233 20.5708 123.014 24.5165V19.5842H112.574V60.0292H123.508ZM239.631 45.561L248.427 19.5842H259.935L268.65 45.6433L276.129 19.5842H286.982L274.321 60.0292H263.388L253.935 32.4083L244.646 60.0292H233.548L220.642 19.5842H232.15L239.631 45.561ZM307.886 51.3154C302.543 51.3154 297.611 47.3695 297.611 39.8068C297.611 32.1616 302.543 28.298 307.886 28.298C313.23 28.298 318.162 32.1616 318.162 39.8068C318.162 47.4518 313.23 51.3154 307.886 51.3154ZM307.886 18.3512C295.803 18.3512 286.677 27.3116 286.677 39.8068C286.677 52.2197 295.803 61.2622 307.886 61.2622C319.971 61.2622 329.094 52.2197 329.094 39.8068C329.094 27.3116 319.971 18.3512 307.886 18.3512ZM355.391 19.2555C356.295 19.2555 357.116 19.3376 357.939 19.4199V30.4354C356.706 30.1888 355.637 30.1065 354.65 30.1065C349.061 30.1065 344.21 32.8192 344.21 41.533V60.0292H333.278V19.5842H343.882V25.5852C346.348 20.2419 351.938 19.2555 355.391 19.2555Z" fill="#18181B"/>
<path d="M190.314 35.2036C190.561 31.5043 193.684 27.2296 199.356 27.2296C205.605 27.2296 208.235 31.1755 208.399 35.2036H190.314ZM209.468 45.7258C208.153 49.3428 205.358 51.8911 200.261 51.8911C194.835 51.8911 190.314 48.0275 190.067 42.6842H219.004C219.004 42.5197 219.168 40.8757 219.168 39.3138C219.168 26.3254 211.688 18.3516 199.192 18.3516C188.835 18.3516 179.299 26.7364 179.299 39.6426C179.299 53.2885 189.081 61.2625 200.179 61.2625C210.126 61.2625 216.537 55.4259 218.592 48.4385L209.468 45.7258Z" fill="#18181B"/>
</svg>
