<svg width="429" height="78" viewBox="0 0 429 78" fill="none" xmlns="http://www.w3.org/2000/svg">
<path d="M2.19995 0.600098H6.69995V18.2001H29.6V0.600098H34V40.3001H29.5V22.4001H6.69995V40.2001H2.19995V0.600098Z" fill="black"/>
<path d="M57.7 24.5L41.2 0.5H46.5999L60 20.4L73.5 0.6H78.6999L62.2 24.5V40.3H57.7V24.5Z" fill="black"/>
<path d="M85.8 0.600098H100.6C109.6 0.600098 115.4 5.4001 115.4 13.2001V13.3001C115.4 21.9001 108.3 26.3001 99.8 26.3001H90.2V40.3001H85.7V0.600098H85.8ZM100.1 22.2001C106.7 22.2001 111 18.7001 111 13.5001V13.4001C111 7.7001 106.8 4.8001 100.3 4.8001H90.3V22.3001H100.1V22.2001Z" fill="black"/>
<path d="M123.7 0.600098H152.4V4.7001H128.2V18.2001H149.8V22.3001H128.2V36.2001H152.7V40.3001H123.7V0.600098V0.600098Z" fill="black"/>
<path d="M161.6 0.600098H178.7C183.6 0.600098 187.5 2.1001 190 4.6001C191.9 6.5001 193.1 9.3001 193.1 12.4001V12.5001C193.1 19.1001 188.6 22.9001 182.3 24.1001L194.5 40.3001H189L177.5 24.9001H166.2V40.3001H161.7V0.600098H161.6ZM178.3 20.8001C184.2 20.8001 188.5 17.7001 188.5 12.6001V12.5001C188.5 7.6001 184.8 4.7001 178.4 4.7001H166.2V20.8001H178.3V20.8001Z" fill="black"/>
<path d="M200 34.4001L202.8 31.1001C206.9 34.8001 210.9 36.7001 216.4 36.7001C221.7 36.7001 225.2 33.9001 225.2 30.0001V29.9001C225.2 26.2001 223.2 24.1001 214.9 22.4001C205.8 20.4001 201.6 17.5001 201.6 11.0001V10.9001C201.6 4.7001 207.1 0.100098 214.6 0.100098C220.4 0.100098 224.5 1.7001 228.5 5.0001L225.9 8.5001C222.2 5.5001 218.5 4.2001 214.5 4.2001C209.3 4.2001 206.1 7.0001 206.1 10.6001V10.7001C206.1 14.4001 208.1 16.5001 216.9 18.4001C225.7 20.3001 229.8 23.6001 229.8 29.6001V29.7001C229.8 36.5001 224.1 40.9001 216.3 40.9001C209.9 40.8001 204.7 38.7001 200 34.4001Z" fill="black"/>
<path d="M238.8 0.600098H253.6C262.6 0.600098 268.4 5.4001 268.4 13.2001V13.3001C268.4 21.9001 261.3 26.3001 252.8 26.3001H243.2V40.3001H238.7V0.600098H238.8ZM253.1 22.2001C259.7 22.2001 264 18.7001 264 13.5001V13.4001C264 7.7001 259.8 4.8001 253.3 4.8001H243.3V22.3001H253.1V22.2001Z" fill="black"/>
<path d="M276.7 0.600098H281.2V18.2001H304V0.600098H308.5V40.3001H304V22.4001H281.1V40.2001H276.6V0.600098H276.7Z" fill="black"/>
<path d="M319.7 0.600098H348.4V4.7001H324.2V18.2001H345.8V22.3001H324.2V36.2001H348.7V40.3001H319.7V0.600098Z" fill="black"/>
<path d="M357.7 0.600098H374.8C379.7 0.600098 383.6 2.1001 386.1 4.6001C388 6.5001 389.2 9.3001 389.2 12.4001V12.5001C389.2 19.1001 384.7 22.9001 378.4 24.1001L390.6 40.3001H385L373.5 24.9001H362.2V40.3001H357.7V0.600098ZM374.3 20.8001C380.2 20.8001 384.5 17.7001 384.5 12.6001V12.5001C384.5 7.6001 380.8 4.7001 374.4 4.7001H362.2V20.8001H374.3V20.8001Z" fill="black"/>
<path d="M398.7 0.600098H427.4V4.7001H403.2V18.2001H424.8V22.3001H403.2V36.2001H427.7V40.3001H398.7V0.600098Z" fill="black"/>
<path d="M2.5 56.2H5L11.9 73L18.9 56.2H21.3L12.9 75.8H10.9L2.5 56.2Z" fill="black"/>
<path d="M25.1 56.2H39.2V58.2H27.3V64.9H37.9V66.9H27.3V73.6999H39.3V75.6999H25.1V56.2Z" fill="black"/>
<path d="M43.8 56.2H45.9001L58.2001 71.8V56.2H60.3V75.6999H58.5L45.9001 59.7V75.6999H43.8V56.2V56.2Z" fill="black"/>
<path d="M70.9 58.2H64.4V56.2H79.7V58.2H73.2V75.6999H71V58.2H70.9Z" fill="black"/>
<path d="M83.5 67.5V56.2H85.7V67.4C85.7 71.6 87.9 74 91.7 74C95.3 74 97.6 71.7999 97.6 67.5999V56.2H99.8V67.4C99.8 73.1 96.5 76 91.7 76C86.8 76 83.5 73 83.5 67.5Z" fill="black"/>
<path d="M105 56.2H113.4C115.8 56.2 117.7 56.9 118.9 58.2C119.8 59.1 120.4 60.5 120.4 62C120.4 65.2 118.2 67.0999 115.1 67.6999L121.1 75.6999H118.4L112.7 68.0999H107.1V75.6999H105V56.2ZM113.2 66.0999C116.1 66.0999 118.2 64.5999 118.2 62.0999V62C118.2 59.6 116.4 58.2 113.2 58.2H107.2V66.0999H113.2Z" fill="black"/>
<path d="M125.1 56.2H139.2V58.2H127.3V64.9H138V66.9H127.4V73.6999H139.4V75.6999H125.2V56.2H125.1Z" fill="black"/>
<path d="M142.5 72.9L143.9 71.3C145.9 73.1 147.9 74.1 150.6 74.1C153.2 74.1 154.9 72.7 154.9 70.8V70.7C154.9 68.9 153.9 67.9 149.8 67C145.3 66 143.3 64.6 143.3 61.4V61.3C143.3 58.2 146 56 149.7 56C152.5 56 154.6 56.8 156.6 58.4L155.3 60.1C153.5 58.6 151.7 58 149.7 58C147.2 58 145.5 59.4 145.5 61.1V61.2C145.5 63 146.5 64.1 150.8 65C155.1 65.9 157.2 67.5 157.2 70.5V70.6C157.2 73.9 154.4 76.1 150.5 76.1C147.4 76 144.9 74.9 142.5 72.9Z" fill="black"/>
</svg>
