<svg width="188" height="49" viewBox="0 0 188 49" fill="none" xmlns="http://www.w3.org/2000/svg">
<path d="M83.4629 25.0469C84.3962 24.479 85.1609 23.7255 85.7485 22.8062C86.516 21.6029 86.8899 20.3743 86.8899 19.0474C86.8899 16.4412 85.8469 14.4451 83.789 13.1125C81.8013 11.8277 79.1502 11.2036 75.6697 11.2036H66.4512V40.0962H76.4709C79.7856 40.0962 82.4929 39.3399 84.5227 37.8527C86.5947 36.3318 87.6434 34.2598 87.6434 31.6958C87.6434 30.217 87.1795 28.8113 86.2686 27.5181C85.5405 26.4863 84.5987 25.6597 83.4629 25.0497V25.0469ZM80.8398 22.3254C79.6787 23.0705 78.1465 23.45 76.291 23.45H70.8004V15.0412H76.2488C78.1887 15.0412 79.6928 15.3841 80.8511 16.0898C81.9588 16.7645 82.4929 17.7682 82.4929 19.1655C82.4929 20.5627 81.9503 21.6142 80.8398 22.3254V22.3254ZM81.5877 35.0582C80.4069 35.851 78.8044 36.2559 76.8224 36.2559H70.7976V27.3269H76.9995C78.9112 27.3269 80.4153 27.6952 81.5961 28.4515C82.7066 29.1655 83.2492 30.1973 83.2492 31.6115C83.2492 33.1774 82.7038 34.3048 81.5877 35.0554V35.0582Z" fill="white"/>
<path d="M106.106 29.7761C106.106 32.0111 105.602 33.7654 104.607 34.9884C103.629 36.2001 102.15 36.8101 100.213 36.8101C98.6077 36.8101 97.3904 36.3772 96.5976 35.5225C95.7823 34.6454 95.3859 33.3634 95.3859 31.6091V19.6607H91.1716V31.491C91.1716 37.5158 94.0786 40.569 99.811 40.569C102.409 40.569 104.565 39.8127 106.238 38.3255V40.091H110.317V19.6213H106.103V29.7789H106.109L106.106 29.7761Z" fill="white"/>
<path d="M125.358 19.1431C123.874 19.1431 122.477 19.4523 121.203 20.068C120.329 20.4897 119.575 21.0014 118.929 21.6199L118.993 19.6238H114.852V40.0963H119.066V29.9388C119.066 27.7347 119.6 25.9719 120.649 24.6871C121.661 23.4501 123.188 22.8232 125.178 22.8232C126.803 22.8232 128.068 23.273 128.934 24.1614C129.82 25.0638 130.267 26.3655 130.267 28.0242V40.0963H134.526V28.266C134.526 25.4125 133.719 23.1549 132.125 21.5552C130.531 19.9556 128.254 19.1431 125.353 19.1431H125.358Z" fill="white"/>
<path d="M155.156 21.7997C154.512 21.1559 153.728 20.6049 152.803 20.1466C151.456 19.4803 149.921 19.143 148.24 19.143C145.145 19.143 142.567 20.1972 140.571 22.2777C138.597 24.3356 137.596 26.8996 137.596 29.8993L137.641 30.903L137.681 30.8692C137.88 33.4473 138.867 35.6542 140.618 37.4451C142.623 39.4974 145.204 40.5348 148.282 40.5348C151.155 40.5348 153.506 39.6183 155.285 37.8077V40.0962H159.365V11.2036H155.15V21.7997H155.156ZM148.552 36.894C146.531 36.894 144.897 36.2334 143.694 34.9289C142.508 33.6413 141.906 31.9488 141.906 29.8993C141.906 27.8498 142.508 26.1517 143.694 24.8698C144.897 23.5653 146.534 22.9046 148.552 22.9046C150.571 22.9046 152.207 23.5653 153.41 24.8698C154.628 26.1883 155.243 27.8807 155.243 29.8993C155.243 31.9179 154.628 33.6132 153.41 34.9289C152.207 36.2334 150.571 36.894 148.552 36.894Z" fill="white"/>
<path d="M168.434 11.2036H164.237V40.532H168.434V11.2036Z" fill="white"/>
<path d="M177.852 40.5722H173.655V20.0969H187.593V24.2971H177.852V40.5722V40.5722Z" fill="white"/>
<path d="M39.8322 7.79022C38.6973 7.10642 37.3985 6.743 36.0739 6.73853C35.8599 6.73853 35.64 6.73853 35.426 6.73853C34.4435 6.83672 33.4892 7.1232 32.6149 7.58235L28.7222 9.69798L26.8889 10.6825L13.6461 17.7754C12.476 18.3986 11.4976 19.329 10.8161 20.4666C10.1345 21.6042 9.77562 22.9061 9.77784 24.2325V30.6344L14.6667 28.0174V24.2325C14.6678 23.7922 14.7876 23.3606 15.0134 22.9828C15.2393 22.6051 15.5629 22.2953 15.95 22.0862L26.8889 16.2284L28.7222 15.2501L33.611 12.6329L34.9249 11.9299C35.0882 11.8382 35.2629 11.7682 35.4444 11.722C35.6424 11.6609 35.8484 11.63 36.0555 11.6303C36.4992 11.6342 36.9337 11.7566 37.3143 11.9848C37.6765 12.1983 37.9762 12.5035 38.1831 12.8693C38.3902 13.2353 38.4973 13.6494 38.4938 14.0699V27.8401C38.4927 28.2802 38.3729 28.712 38.1471 29.0897C37.9212 29.4675 37.5976 29.7772 37.2105 29.9863L14.6667 42.0626V37.7274L9.77784 40.32V45.8844C9.77755 46.3317 9.89323 46.7714 10.1136 47.1607C10.3339 47.5499 10.6514 47.8754 11.0349 48.1051C11.4185 48.3349 11.8551 48.4612 12.3021 48.4717C12.749 48.4822 13.1911 48.3766 13.5851 48.1651L39.5205 34.2726C40.6874 33.6519 41.6638 32.7256 42.3452 31.5925C43.0265 30.4595 43.3872 29.1625 43.3888 27.8401V14.0699C43.3943 12.8039 43.069 11.5583 42.4451 10.4568C41.8213 9.35531 40.9205 8.43604 39.8322 7.79022Z" fill="white"/>
<path d="M28.7221 17.3292V21.1141C28.721 21.5543 28.6012 21.9861 28.3754 22.3638C28.1495 22.7415 27.8259 23.0513 27.4388 23.2604L16.4999 29.1182L14.6666 30.1026L9.77778 32.7197L7.94445 33.698L4.88891 35.3367V17.5066C4.89001 17.0664 5.00982 16.6346 5.23569 16.2569C5.46156 15.8792 5.78512 15.5694 6.17224 15.3603L25.1166 5.20391C25.4642 5.00967 25.8551 4.9066 26.2532 4.9043C26.6969 4.90833 27.1315 5.03073 27.5121 5.25892C27.8743 5.4724 28.1738 5.77747 28.3809 6.14346C28.588 6.50945 28.6951 6.9235 28.6916 7.34403V7.61919L31.7165 5.99881C32.2228 5.729 32.7525 5.50593 33.2993 5.33233C32.7989 3.53687 31.6256 2.00372 30.0238 1.05209C28.9407 0.395251 27.7048 0.0332969 26.4388 0.00218958C25.1727 -0.0289165 23.9205 0.271874 22.8066 0.874748L3.86226 11.0372C2.69141 11.6622 1.71307 12.5949 1.03253 13.7348C0.35199 14.8747 -0.00498087 16.1787 5.25016e-05 17.5066V39.1828C-0.000231008 39.6302 0.115445 40.0699 0.335781 40.4592C0.556118 40.8484 0.873576 41.1738 1.25716 41.4036C1.64074 41.6335 2.07734 41.7597 2.52431 41.7703C2.97127 41.7808 3.41331 41.6751 3.80727 41.4636L7.94445 39.2502L9.77778 38.2657L14.6666 35.6486L16.4999 34.6642L29.7427 27.5713C30.9133 26.9486 31.8921 26.0183 32.5736 24.8806C33.2552 23.7428 33.6138 22.4407 33.611 21.1141V14.7121L28.7221 17.3292Z" fill="white"/>
</svg>
