<?xml version="1.0" encoding="utf-8"?>
<!-- Generator: Adobe Illustrator 27.2.0, SVG Export Plug-In . SVG Version: 6.00 Build 0)  -->
<svg version="1.1" xmlns="http://www.w3.org/2000/svg" xmlns:xlink="http://www.w3.org/1999/xlink" x="0px" y="0px"
	 viewBox="0 0 31 30" style="enable-background:new 0 0 31 30;" xml:space="preserve">
<style type="text/css">
	.st0{stroke:#000000;stroke-miterlimit:10;}
	.st1{fill:#FFFFFF;}
</style>
<g id="black">
	<rect x="-4.4" y="-2.2" class="st0" width="40.9" height="36.4"/>
</g>
<g id="Layer_1">
	<path class="st1" d="M2,30c-1.1,0-2-0.9-2-2c0-8.7,0-17.3,0-26c0-1.1,0.9-2,2-2c8.7,0,17.3,0,26,0c1.1,0,2,0.9,2,2
		c0,6.2,0,12.4,0,18.5c0,0.6-0.6,1-1.2,1l0,0c-0.6,0-1.2-0.4-1.2-1c0-5.4,0-10.8,0-16.1c0-1.1-0.9-2-2-2c-7.1,0-14.1,0-21.2,0
		c-1.1,0-2,0.9-2,2c0,7,0,14.1,0,21.2c0,1.1,0.9,2,2,2c7.6,0,15.2,0,22.8,0c0.2,0,0.4-0.2,0.4-0.4l0,0c0-0.3,0.3-0.5,0.5-0.4
		c0.2,0.1,0.5,0.1,0.7,0.1c0.6,0,1.2,0.4,1.2,1c0,0.3,0,0.5,0,0.8c0,0.7-0.6,1.3-1.3,1.3C19.8,30,10.9,30,2,30z"/>
	<path class="st1" d="M25.2,26c-1.8,0-3.5,0-5.2,0c0,0,0-0.1,0-0.1c0-0.5,0-0.5,0.5-0.7c0.4-0.1,0.8-0.2,1.2-0.3
		c-0.5-1.2-0.9-2.5-1.4-3.7c-0.5,0-1.1,0-1.6,0c-1,0-2.1,0-3.1,0c-0.1,0-0.2,0.1-0.2,0.1c-0.4,1.2-0.9,2.4-1.3,3.6
		c0.3,0.1,0.6,0.2,1,0.2c0.1,0,0.2,0.1,0.3,0.1c0.5,0.2,0.5,0.2,0.4,0.8c-1.5,0-3,0-4.5,0c0,0,0-0.1,0-0.1c0-0.5,0-0.5,0.5-0.7
		c0.3-0.1,0.5-0.2,0.8-0.2c0.2,0,0.2-0.1,0.3-0.3c1.7-4.3,3.3-8.7,5-13c0-0.1,0.1-0.3,0.2-0.3c0.2,0,0.4,0,0.5,0
		c0,0,0.1,0.1,0.1,0.2c0.8,2.1,1.6,4.3,2.5,6.4c0.9,2.2,1.7,4.5,2.6,6.7c0.1,0.2,0.2,0.2,0.3,0.3c0.4,0.1,0.7,0.2,1,0.3
		c0.2,0.1,0.3,0.2,0.3,0.4C25.2,25.7,25.2,25.8,25.2,26z M15.7,20c1.4,0,2.7,0,4.1,0c-0.7-2-1.7-3.9-2-6C17.1,16,16.4,18,15.7,20z"
		/>
	<path class="st1" d="M30.7,24.3c0,1.1-0.9,1.9-1.9,1.9c-1.1,0-1.9-0.9-1.9-1.9c0-1.1,0.9-1.9,1.9-1.9
		C29.9,22.3,30.7,23.2,30.7,24.3z"/>
</g>
</svg>
