<?xml version="1.0" encoding="utf-8"?>
<!-- Generator: Adobe Illustrator 27.2.0, SVG Export Plug-In . SVG Version: 6.00 Build 0)  -->
<svg version="1.1" xmlns="http://www.w3.org/2000/svg" xmlns:xlink="http://www.w3.org/1999/xlink" x="0px" y="0px"
	 viewBox="0 0 124 24" style="enable-background:new 0 0 124 24;" xml:space="preserve">
<style type="text/css">
	.st0{stroke:#000000;stroke-miterlimit:10;}
	.st1{fill:#FFFFFF;}
	.st2{clip-path:url(#SVGID_00000027603856662995335940000015060439555432816801_);}
	.st3{fill-rule:evenodd;clip-rule:evenodd;fill:#FFFFFF;}
</style>
<g id="black_background">
	<rect x="-0.1" y="-0.4" class="st0" width="124.3" height="25.6"/>
</g>
<g id="Layer_1">
	<path class="st1" d="M22.8,19.8V4.3h6.6c1.1,0,2,0.2,2.7,0.5c0.8,0.4,1.3,0.9,1.7,1.6c0.4,0.7,0.6,1.5,0.6,2.4c0,0.7-0.2,1.3-0.6,2
		c-0.4,0.6-1,1.1-1.9,1.5v-1.6c0.8,0.3,1.4,0.7,1.9,1.1c0.4,0.4,0.7,0.9,0.9,1.5C35,13.9,35,14.4,35,15c0,1.5-0.5,2.7-1.5,3.6
		c-1,0.8-2.4,1.3-4.2,1.3H22.8z M26,17h3.7c0.7,0,1.2-0.2,1.6-0.6c0.4-0.4,0.6-0.9,0.6-1.5c0-0.6-0.2-1.1-0.6-1.5
		c-0.4-0.4-0.9-0.6-1.6-0.6H26V17z M26,10.1h3.6c0.5,0,0.9-0.1,1.2-0.4C31,9.4,31.2,9,31.2,8.5c0-0.5-0.2-0.8-0.5-1.1
		C30.4,7.1,30,7,29.5,7H26V10.1z"/>
	<path class="st1" d="M40.4,20.1c-0.8,0-1.5-0.1-2.1-0.4c-0.6-0.3-1.1-0.6-1.4-1.1c-0.3-0.5-0.5-1.1-0.5-1.8c0-0.6,0.1-1.2,0.4-1.7
		c0.3-0.5,0.7-0.9,1.3-1.3c0.6-0.3,1.4-0.6,2.3-0.7l3.5-0.6v2.3L41,15.4c-0.4,0.1-0.8,0.2-1,0.4c-0.2,0.2-0.4,0.5-0.4,0.9
		c0,0.3,0.1,0.6,0.4,0.8c0.3,0.2,0.6,0.3,1,0.3c0.5,0,1-0.1,1.4-0.3s0.7-0.5,0.9-0.9c0.2-0.4,0.3-0.8,0.3-1.3v-3
		c0-0.4-0.2-0.8-0.5-1.1c-0.3-0.3-0.8-0.4-1.4-0.4c-0.6,0-1,0.2-1.5,0.5c-0.4,0.3-0.7,0.7-0.9,1.2l-2.5-1.2c0.2-0.6,0.6-1.2,1.1-1.7
		c0.5-0.5,1.1-0.8,1.7-1.1c0.7-0.3,1.4-0.4,2.2-0.4c1,0,1.8,0.2,2.5,0.5c0.7,0.3,1.3,0.8,1.7,1.5c0.4,0.6,0.6,1.3,0.6,2.2v7.5h-2.9
		V18l0.7-0.1c-0.3,0.5-0.7,0.9-1.1,1.3c-0.4,0.3-0.9,0.6-1.4,0.7C41.6,20,41,20.1,40.4,20.1z"/>
	<path class="st1" d="M54.6,20.1c-1.1,0-2.2-0.3-3.1-0.8c-0.9-0.5-1.6-1.2-2.2-2.2c-0.5-0.9-0.8-1.9-0.8-3.1c0-1.1,0.3-2.1,0.8-3
		c0.5-0.9,1.2-1.6,2.2-2.1s1.9-0.8,3.1-0.8c0.8,0,1.6,0.1,2.3,0.4s1.3,0.7,1.9,1.2c0.5,0.5,0.9,1.1,1.1,1.8l-2.7,1.2
		c-0.2-0.6-0.5-1-1-1.4c-0.5-0.3-1-0.5-1.6-0.5c-0.5,0-1,0.1-1.5,0.4c-0.4,0.3-0.7,0.6-1,1.1c-0.2,0.5-0.4,1-0.4,1.6
		c0,0.6,0.1,1.2,0.4,1.6c0.2,0.5,0.6,0.8,1,1.1c0.4,0.3,0.9,0.4,1.5,0.4c0.6,0,1.2-0.2,1.6-0.5c0.5-0.3,0.8-0.8,1-1.4l2.7,1.2
		c-0.2,0.7-0.6,1.3-1.1,1.8c-0.5,0.5-1.1,0.9-1.9,1.3C56.2,19.9,55.4,20.1,54.6,20.1z"/>
	<path class="st1" d="M61.7,19.8V4h3.1v10.1l-1.2-0.4l5-5.4h3.8L68.4,13l4.1,6.8H69L65.5,14l1.8-0.5l-3.5,3.8l1-1.8v4.3H61.7z"/>
	<path class="st1" d="M73.9,24V8.4h2.9v2.2L76.5,10c0.4-0.6,0.9-1,1.5-1.3c0.7-0.3,1.4-0.5,2.2-0.5c1.1,0,2.1,0.3,2.9,0.8
		s1.6,1.2,2.1,2.2c0.5,0.9,0.8,1.9,0.8,3c0,1.1-0.3,2.1-0.8,3c-0.5,0.9-1.2,1.6-2.1,2.2c-0.9,0.5-1.9,0.8-3,0.8
		c-0.8,0-1.5-0.1-2.2-0.4c-0.7-0.3-1.2-0.7-1.6-1.3l0.5-0.6V24H73.9z M79.9,17.2c0.6,0,1.1-0.1,1.5-0.4c0.4-0.3,0.8-0.6,1-1.1
		c0.2-0.5,0.4-1,0.4-1.6c0-0.6-0.1-1.1-0.4-1.6c-0.2-0.5-0.6-0.8-1-1.1c-0.4-0.3-1-0.4-1.5-0.4c-0.6,0-1.1,0.1-1.5,0.4
		c-0.4,0.3-0.8,0.6-1,1.1c-0.2,0.5-0.4,1-0.4,1.6c0,0.6,0.1,1.2,0.4,1.6c0.2,0.5,0.6,0.8,1,1.1C78.8,17.1,79.3,17.2,79.9,17.2z"/>
	<path class="st1" d="M91.4,20.1c-0.8,0-1.5-0.1-2.1-0.4c-0.6-0.3-1.1-0.6-1.4-1.1c-0.3-0.5-0.5-1.1-0.5-1.8c0-0.6,0.1-1.2,0.4-1.7
		c0.3-0.5,0.7-0.9,1.3-1.3c0.6-0.3,1.4-0.6,2.3-0.7l3.5-0.6v2.3L92,15.4c-0.4,0.1-0.8,0.2-1,0.4c-0.2,0.2-0.4,0.5-0.4,0.9
		c0,0.3,0.1,0.6,0.4,0.8c0.3,0.2,0.6,0.3,1,0.3c0.5,0,1-0.1,1.4-0.3c0.4-0.2,0.7-0.5,0.9-0.9c0.2-0.4,0.3-0.8,0.3-1.3v-3
		c0-0.4-0.2-0.8-0.5-1.1c-0.3-0.3-0.8-0.4-1.4-0.4c-0.6,0-1,0.2-1.5,0.5c-0.4,0.3-0.7,0.7-0.9,1.2l-2.5-1.2c0.2-0.6,0.6-1.2,1.1-1.7
		c0.5-0.5,1.1-0.8,1.7-1.1c0.7-0.3,1.4-0.4,2.2-0.4c1,0,1.8,0.2,2.5,0.5c0.7,0.3,1.3,0.8,1.7,1.5c0.4,0.6,0.6,1.3,0.6,2.2v7.5h-2.9
		V18l0.7-0.1c-0.3,0.5-0.7,0.9-1.1,1.3c-0.4,0.3-0.9,0.6-1.4,0.7C92.6,20,92,20.1,91.4,20.1z"/>
	<path class="st1" d="M105.6,20.1c-1.1,0-2.2-0.3-3.1-0.8c-0.9-0.5-1.6-1.2-2.2-2.2c-0.5-0.9-0.8-1.9-0.8-3.1c0-1.1,0.3-2.1,0.8-3
		c0.5-0.9,1.2-1.6,2.2-2.1s1.9-0.8,3.1-0.8c0.8,0,1.6,0.1,2.4,0.4s1.3,0.7,1.9,1.2c0.5,0.5,0.9,1.1,1.1,1.8l-2.7,1.2
		c-0.2-0.6-0.5-1-1-1.4c-0.5-0.3-1-0.5-1.6-0.5c-0.5,0-1,0.1-1.5,0.4c-0.4,0.3-0.7,0.6-1,1.1c-0.2,0.5-0.4,1-0.4,1.6
		c0,0.6,0.1,1.2,0.4,1.6c0.2,0.5,0.6,0.8,1,1.1c0.4,0.3,0.9,0.4,1.5,0.4c0.6,0,1.2-0.2,1.6-0.5c0.5-0.3,0.8-0.8,1-1.4l2.7,1.2
		c-0.2,0.7-0.6,1.3-1.1,1.8c-0.5,0.5-1.1,0.9-1.9,1.3C107.2,19.9,106.4,20.1,105.6,20.1z"/>
	<path class="st1" d="M112.7,19.8V4h3.1v10.1l-1.2-0.4l5-5.4h3.8l-4.1,4.6l4.1,6.8H120l-3.4-5.8l1.8-0.5l-3.5,3.8l1-1.8v4.3H112.7z"
		/>
	<g>
		<defs>
			<rect id="SVGID_1_" width="14.4" height="21"/>
		</defs>
		<clipPath id="SVGID_00000030452879967021744760000005754977548329963186_">
			<use xlink:href="#SVGID_1_"  style="overflow:visible;"/>
		</clipPath>
		<g style="clip-path:url(#SVGID_00000030452879967021744760000005754977548329963186_);">
			<path class="st3" d="M8.6,1.7c0.8,0,1.5,0.1,2.1,0.3C10.1,0.4,8.7,0,7.2,0C5.7,0,4.4,0.4,3.7,2c0.7-0.2,1.4-0.3,2.1-0.3H8.6z
				 M5.7,3.2C2.1,3.2,0,6,0,9.5v3.6c0,0.4,0.3,0.6,0.7,0.6h13.1c0.4,0,0.7-0.3,0.7-0.6V9.5c0-3.5-2.4-6.4-6-6.4H5.7z M7.2,9.6
				c1.3,0,2.3-1,2.3-2.3S8.5,5,7.2,5S4.9,6,4.9,7.3S5.9,9.6,7.2,9.6z M0,15.9c0-0.4,0.3-0.6,0.7-0.6h13.1c0.4,0,0.7,0.3,0.7,0.6v3.8
				c0,0.7-0.6,1.3-1.3,1.3H1.3C0.6,21,0,20.4,0,19.7V15.9z"/>
		</g>
	</g>
</g>
</svg>
