<?xml version="1.0" encoding="utf-8"?>
<!-- Generator: Adobe Illustrator 27.2.0, SVG Export Plug-In . SVG Version: 6.00 Build 0)  -->
<svg version="1.1" id="Layer_1" xmlns="http://www.w3.org/2000/svg" xmlns:xlink="http://www.w3.org/1999/xlink" x="0px" y="0px"
	 viewBox="0 0 1922 621" style="enable-background:new 0 0 1922 621;" xml:space="preserve">
<style type="text/css">
	.st0{stroke:#000000;stroke-width:4;stroke-miterlimit:10;}
	.st1{clip-path:url(#SVGID_00000085247843944939763180000013411731994536136593_);}
	.st2{stroke:#FFFFFF;stroke-width:4;stroke-miterlimit:10;}
	.st3{fill:#FFFFFF;}
</style>
<g id="black_background">
	<rect class="st0" width="1922" height="621"/>
</g>
<g id="Layer_1_00000041259646339757908860000003471661058564377256_">
	<g>
		<g>
			<defs>
				<rect id="SVGID_1_" width="1922" height="621"/>
			</defs>
			<clipPath id="SVGID_00000021103001131722034260000000263394688321895810_">
				<use xlink:href="#SVGID_1_"  style="overflow:visible;"/>
			</clipPath>
			<g style="clip-path:url(#SVGID_00000021103001131722034260000000263394688321895810_);">
				<path class="st2" d="M916,327.2L916,327.2c-0.6-7.8-3.2-14.9-7.2-21c-0.4-0.6-0.8-1.2-1.2-1.8c-0.4-0.6-0.8-1.2-1.2-1.8
					c-0.4-0.6-0.8-1.2-1.2-1.8c-0.4-0.6-0.8-1.2-1.2-1.8c-0.4-0.6-0.8-1.2-1.2-1.8c-0.4-0.6-0.8-1.2-1.2-1.8
					c-0.4-0.6-0.8-1.2-1.2-1.8c-0.4-0.6-0.8-1.2-1.2-1.8c-0.4-0.6-0.8-1.2-1.2-1.8c-0.4-0.6-0.8-1.2-1.2-1.8
					c-0.4-0.6-0.8-1.2-1.2-1.8c-0.4-0.6-0.8-1.2-1.2-1.8c-0.4-0.6-0.8-1.2-1.2-1.8c-0.4-0.6-0.8-1.2-1.2-1.8
					c-0.4-0.6-0.8-1.2-1.2-1.8c-0.4-0.6-0.8-1.2-1.2-1.8c-0.4-0.6-0.8-1.2-1.2-1.8c-0.4-0.6-0.8-1.2-1.2-1.8
					c-0.4-0.6-0.8-1.2-1.2-1.8c-0.4-0.6-0.8-1.2-1.2-1.8c-0.4-0.6-0.8-1.2-1.2-1.8c-0.4-0.6-0.8-1.2-1.2-1.8
					c-0.4-0.6-0.8-1.2-1.2-1.8c-0.4-0.6-0.8-1.2-1.2-1.8c-0.4-0.6-0.8-1.2-1.2-1.8c-0.4-0.6-0.8-1.2-1.2-1.8
					c-0.4-0.6-0.8-1.2-1.2-1.8c-0.4-0.6-0.8-1.2-1.2-1.8c-0.4-0.6-0.8-1.2-1.2-1.8s-0.8-1.2-1.2-1.8s-0.8-1.2-1.2-1.8
					s-0.8-1.2-1.2-1.8s-0.8-1.2-1.2-1.8s-0.8-1.2-1.2-1.8s-0.8-1.2-1.2-1.8s-0.8-1.2-1.2-1.8s-0.8-1.2-1.2-1.8s-0.8-1.2-1.2-1.8
					c-5.1-8.4-13-15-22.7-18.2c-3-1-5.9-1.6-9-1.9c-1.5-0.1-1.7-0.2-78.7-0.2c-17.8,0-39.5,0-66.2,0c-95.4,0-143.4,0-144,0.1h-0.1
					c-0.7,0.1-1.7,0.2-1.9,0.2c-12,1.5-22.8,8.3-29.6,18.7c-3.6,5.5-5.8,11.6-6.7,18.2c-0.4,3-0.4,3.7-0.4,23.6
					c0,18.8,0,18.9,0.2,20.7c0.4,3.8,1.2,7.4,2.5,10.6c1.2,3.3,2.8,6.3,4.7,9.2c0.4,0.6,0.8,1.2,1.2,1.8c0.4,0.6,0.8,1.2,1.2,1.8
					c0.4,0.6,0.8,1.2,1.2,1.8c0.4,0.6,0.8,1.2,1.2,1.8c0.4,0.6,0.8,1.2,1.2,1.8c0.4,0.6,0.8,1.2,1.2,1.8c0.4,0.6,0.8,1.2,1.2,1.8
					c0.4,0.6,0.8,1.2,1.2,1.8c0.4,0.6,0.8,1.2,1.2,1.8c0.4,0.6,0.8,1.2,1.2,1.8c0.4,0.6,0.8,1.2,1.2,1.8c0.4,0.6,0.8,1.2,1.2,1.8
					c0.4,0.6,0.8,1.2,1.2,1.8c0.4,0.6,0.8,1.2,1.2,1.8c0.4,0.6,0.8,1.2,1.2,1.8c0.4,0.6,0.8,1.2,1.2,1.8c0.4,0.6,0.8,1.2,1.2,1.8
					c0.4,0.6,0.8,1.2,1.2,1.8c0.4,0.6,0.8,1.2,1.2,1.8c0.4,0.6,0.8,1.2,1.2,1.8c0.4,0.6,0.8,1.2,1.2,1.8c0.4,0.6,0.8,1.2,1.2,1.8
					c0.4,0.6,0.8,1.2,1.2,1.8c0.4,0.6,0.8,1.2,1.2,1.8c0.4,0.6,0.8,1.2,1.2,1.8c0.4,0.6,0.8,1.2,1.2,1.8c0.4,0.6,0.8,1.2,1.2,1.8
					c0.4,0.6,0.8,1.2,1.2,1.8c0.4,0.6,0.8,1.2,1.2,1.8c0.4,0.6,0.8,1.2,1.2,1.8c0.4,0.6,0.8,1.2,1.2,1.8c0.4,0.6,0.8,1.2,1.2,1.8
					c0.4,0.6,0.8,1.2,1.2,1.8c0.4,0.6,0.8,1.2,1.2,1.8c0.4,0.6,0.8,1.2,1.2,1.8c0.4,0.6,0.8,1.2,1.2,1.8c0.4,0.6,0.8,1.2,1.2,1.8
					c0.4,0.6,0.8,1.2,1.2,1.8c5.7,9.4,14.7,16.2,25.3,18.9c1.8,0.4,3.7,0.8,5.6,1c1.6,0.2,1.7,0.2,23.1,0.2c18.4,0,52.7,0,121.3,0
					c23.1,0,43.4,0,60.8,0c81.4,0,82.1,0,82.8-0.1c2.5-0.1,4.2-0.3,6.4-0.8c6-1.2,11.7-3.8,16.6-7.4c8.7-6.5,14.5-16.1,16.4-26.9
					v-0.2l0.3-1.5v-0.3c0.3-2,0.3-4.4,0.3-18v-4.2C916.2,328.7,916.1,328.2,916,327.2L916,327.2L916,327.2z"/>
				<path class="st2" d="M915.8,111.9l-0.1-0.6v-0.1l-0.3-2.5l-0.2-0.5c-1.2-5.5-3.3-10.6-6.5-15.2c-0.4-0.6-0.8-1.2-1.2-1.8
					c-0.4-0.6-0.8-1.2-1.2-1.8c-0.4-0.6-0.8-1.2-1.2-1.8c-0.4-0.6-0.8-1.2-1.2-1.8c-0.4-0.6-0.8-1.2-1.2-1.8
					c-0.4-0.6-0.8-1.2-1.2-1.8c-0.4-0.6-0.8-1.2-1.2-1.8c-0.4-0.6-0.8-1.2-1.2-1.8c-0.4-0.6-0.8-1.2-1.2-1.8
					c-0.4-0.6-0.8-1.2-1.2-1.8c-0.4-0.6-0.8-1.2-1.2-1.8c-0.4-0.6-0.8-1.2-1.2-1.8c-0.4-0.6-0.8-1.2-1.2-1.8
					c-0.4-0.6-0.8-1.2-1.2-1.8c-0.4-0.6-0.8-1.2-1.2-1.8c-0.4-0.6-0.8-1.2-1.2-1.8c-0.4-0.6-0.8-1.2-1.2-1.8s-0.8-1.2-1.2-1.8
					s-0.8-1.2-1.2-1.8s-0.8-1.2-1.2-1.8s-0.8-1.2-1.2-1.8s-0.8-1.2-1.2-1.8s-0.8-1.2-1.2-1.8s-0.8-1.2-1.2-1.8s-0.8-1.2-1.2-1.8
					s-0.8-1.2-1.2-1.8s-0.8-1.2-1.2-1.8s-0.8-1.2-1.2-1.8s-0.8-1.2-1.2-1.8s-0.8-1.2-1.2-1.8s-0.8-1.2-1.2-1.8s-0.8-1.2-1.2-1.8
					s-0.8-1.2-1.2-1.8s-0.8-1.2-1.2-1.8c-0.4-0.6-0.8-1.2-1.2-1.8c-0.4-0.6-0.8-1.2-1.2-1.8c-0.4-0.6-0.8-1.2-1.2-1.8
					c-0.4-0.6-0.8-1.2-1.2-1.8c-1.3-2.2-2.9-4.3-4.6-6.2c-5.7-6.4-13.1-10.9-21.4-12.9c-2.6-0.6-4.8-0.9-7.6-1.1l0,0
					c-0.5,0-1.4-0.1-125.6-0.1S580,3.4,579.5,3.4l0,0c-11.2,0.5-21.5,5.5-28.9,13.9c-6.7,7.7-10.6,17.5-10.8,27.8
					c-0.2,9.1,2.3,17.7,7.3,25c0.4,0.6,0.8,1.2,1.2,1.8c0.4,0.6,0.8,1.2,1.2,1.8c0.4,0.6,0.8,1.2,1.2,1.8c0.4,0.6,0.8,1.2,1.2,1.8
					c0.4,0.6,0.8,1.2,1.2,1.8c0.4,0.6,0.8,1.2,1.2,1.8c0.4,0.6,0.8,1.2,1.2,1.8c0.4,0.6,0.8,1.2,1.2,1.8c0.4,0.6,0.8,1.2,1.2,1.8
					c0.4,0.6,0.8,1.2,1.2,1.8c0.4,0.6,0.8,1.2,1.2,1.8c0.4,0.6,0.8,1.2,1.2,1.8c0.4,0.6,0.8,1.2,1.2,1.8c0.4,0.6,0.8,1.2,1.2,1.8
					c0.4,0.6,0.8,1.2,1.2,1.8c0.4,0.6,0.8,1.2,1.2,1.8c0.4,0.6,0.8,1.2,1.2,1.8c0.4,0.6,0.8,1.2,1.2,1.8c0.4,0.6,0.8,1.2,1.2,1.8
					c0.4,0.6,0.8,1.2,1.2,1.8c0.4,0.6,0.8,1.2,1.2,1.8c0.4,0.6,0.8,1.2,1.2,1.8c0.4,0.6,0.8,1.2,1.2,1.8c0.4,0.6,0.8,1.2,1.2,1.8
					c0.4,0.6,0.8,1.2,1.2,1.8c0.4,0.6,0.8,1.2,1.2,1.8c0.4,0.6,0.8,1.2,1.2,1.8c0.4,0.6,0.8,1.2,1.2,1.8c0.4,0.6,0.8,1.2,1.2,1.8
					c0.4,0.6,0.8,1.2,1.2,1.8c0.4,0.6,0.8,1.2,1.2,1.8c0.4,0.6,0.8,1.2,1.2,1.8c0.4,0.6,0.8,1.2,1.2,1.8c0.4,0.6,0.8,1.2,1.2,1.8
					s0.8,1.2,1.2,1.8s0.8,1.2,1.2,1.8s0.8,1.2,1.2,1.8s0.8,1.2,1.2,1.8c1.5,2.4,3.1,4.7,5.1,6.7c1.1,1.1,33.9,35.3,35.6,36.9
					c6.6,6.3,14.8,10.2,23.7,11.4h0.1c1.6,0.2,1.7,0.2,18.1,0.2c14.2,0,40.7,0,93.7,0c73.2,0,110.3-0.1,111.4-0.2
					c9.4-1.1,18-5.2,24.7-11.9c4.1-4.1,7.4-9.1,9.6-14.6c1.3-3.4,2.2-6.8,2.7-10.7c0.2-1.9,0.2-2,0.3-22.2l0,0
					C916.1,115.1,916.1,114.4,915.8,111.9L915.8,111.9L915.8,111.9z"/>
				<path class="st2" d="M915.6,536v-0.2l0,0l0,0c-1-6.2-3.4-12-6.8-17c-0.4-0.6-0.8-1.2-1.2-1.8s-0.8-1.2-1.2-1.8s-0.8-1.2-1.2-1.8
					s-0.8-1.2-1.2-1.8c-0.4-0.6-0.8-1.2-1.2-1.8c-0.4-0.6-0.8-1.2-1.2-1.8c-0.4-0.6-0.8-1.2-1.2-1.8c-0.4-0.6-0.8-1.2-1.2-1.8
					c-0.4-0.6-0.8-1.2-1.2-1.8c-0.4-0.6-0.8-1.2-1.2-1.8c-0.4-0.6-0.8-1.2-1.2-1.8c-0.4-0.6-0.8-1.2-1.2-1.8
					c-0.4-0.6-0.8-1.2-1.2-1.8c-0.4-0.6-0.8-1.2-1.2-1.8c-0.4-0.6-0.8-1.2-1.2-1.8c-0.4-0.6-0.8-1.2-1.2-1.8
					c-0.4-0.6-0.8-1.2-1.2-1.8c-0.4-0.6-0.8-1.2-1.2-1.8c-0.4-0.6-0.8-1.2-1.2-1.8c-0.4-0.6-0.8-1.2-1.2-1.8
					c-0.4-0.6-0.8-1.2-1.2-1.8c-0.4-0.6-0.8-1.2-1.2-1.8c-0.4-0.6-0.8-1.2-1.2-1.8c-0.4-0.6-0.8-1.2-1.2-1.8
					c-0.4-0.6-0.8-1.2-1.2-1.8c-0.4-0.6-0.8-1.2-1.2-1.8c-0.4-0.6-0.8-1.2-1.2-1.8c-0.4-0.6-0.8-1.2-1.2-1.8
					c-0.4-0.6-0.8-1.2-1.2-1.8c-0.4-0.6-0.8-1.2-1.2-1.8c-0.4-0.6-0.8-1.2-1.2-1.8c-0.4-0.6-0.8-1.2-1.2-1.8
					c-0.4-0.6-0.8-1.2-1.2-1.8c-0.4-0.6-0.8-1.2-1.2-1.8c-0.4-0.6-0.8-1.2-1.2-1.8c-0.4-0.6-0.8-1.2-1.2-1.8
					c-0.4-0.6-0.8-1.2-1.2-1.8c-0.4-0.6-0.8-1.2-1.2-1.8c-5.1-8.4-13-14.9-22.6-18.1c-2.5-0.8-5-1.4-7.8-1.8
					c-1.7-0.2-1.7-0.2-18.8-0.2c-14.9,0-45,0-92.8,0c-15.8,0-30.8,0-44.3,0c-61.8,0-64.8,0-65.6,0.1c-4.4,0.3-9.2,1.4-13.4,3.2
					c-4.5,1.9-8.7,4.7-12.2,8.1c-1.3,1.3-34.3,35.5-36.3,37.6c-3.1,3.5-5.7,7.5-7.5,11.8c-4,9.5-4.4,20.2-1.2,30.1
					c1.3,4,3.2,7.8,5.4,11.2c0.4,0.6,0.8,1.2,1.2,1.8s0.8,1.2,1.2,1.8s0.8,1.2,1.2,1.8s0.8,1.2,1.2,1.8s0.8,1.2,1.2,1.8
					s0.8,1.2,1.2,1.8s0.8,1.2,1.2,1.8s0.8,1.2,1.2,1.8s0.8,1.2,1.2,1.8s0.8,1.2,1.2,1.8s0.8,1.2,1.2,1.8s0.8,1.2,1.2,1.8
					s0.8,1.2,1.2,1.8s0.8,1.2,1.2,1.8s0.8,1.2,1.2,1.8s0.8,1.2,1.2,1.8s0.8,1.2,1.2,1.8s0.8,1.2,1.2,1.8s0.8,1.2,1.2,1.8
					s0.8,1.2,1.2,1.8s0.8,1.2,1.2,1.8s0.8,1.2,1.2,1.8s0.8,1.2,1.2,1.8s0.8,1.2,1.2,1.8s0.8,1.2,1.2,1.8s0.8,1.2,1.2,1.8
					s0.8,1.2,1.2,1.8s0.8,1.2,1.2,1.8s0.8,1.2,1.2,1.8s0.8,1.2,1.2,1.8s0.8,1.2,1.2,1.8s0.8,1.2,1.2,1.8s0.8,1.2,1.2,1.8
					s0.8,1.2,1.2,1.8s0.8,1.2,1.2,1.8s0.8,1.2,1.2,1.8s0.8,1.2,1.2,1.8s0.8,1.2,1.2,1.8c4.7,7.8,11.7,13.8,20.2,17.2
					c3.3,1.3,6.6,2.1,10.5,2.6c1.6,0.2,1.6,0.2,21.3,0.2c16.3,0,46.3,0,106.2,0c20.8,0,38.7,0,54,0c71.4,0,71.8,0,72.8-0.1
					c3.8-0.2,7.2-0.9,10.8-2.1c7.2-2.4,13.6-6.9,18.6-12.8c4.7-5.6,7.8-12.3,9.2-19.4v-0.1l0.2-1.3l0,0c0-0.2,0.1-0.4,0.1-0.6
					c0.4-2.6,0.4-2.8,0.4-20.8v-5.9c0-12.2-0.1-19.2-0.4-21C915.7,536.4,915.6,536.2,915.6,536L915.6,536z"/>
				<path class="st2" d="M494.2,249.7c0.8-16.3-0.6-32.1-4-47.2c-2.2-9.8-5.3-19-9.6-29.1c-3.6-8.3-7.8-16.2-12.6-23.7
					c-0.4-0.6-0.8-1.2-1.2-1.8c-0.4-0.6-0.8-1.2-1.2-1.8c-0.4-0.6-0.8-1.2-1.2-1.8c-0.4-0.6-0.8-1.2-1.2-1.8
					c-0.4-0.6-0.8-1.2-1.2-1.8c-0.4-0.6-0.8-1.2-1.2-1.8c-0.4-0.6-0.8-1.2-1.2-1.8c-0.4-0.6-0.8-1.2-1.2-1.8
					c-0.4-0.6-0.8-1.2-1.2-1.8c-0.4-0.6-0.8-1.2-1.2-1.8c-0.4-0.6-0.8-1.2-1.2-1.8c-0.4-0.6-0.8-1.2-1.2-1.8
					c-0.4-0.6-0.8-1.2-1.2-1.8c-0.4-0.6-0.8-1.2-1.2-1.8c-0.4-0.6-0.8-1.2-1.2-1.8c-0.4-0.6-0.8-1.2-1.2-1.8
					c-0.4-0.6-0.8-1.2-1.2-1.8c-0.4-0.6-0.8-1.2-1.2-1.8c-0.4-0.6-0.8-1.2-1.2-1.8c-0.4-0.6-0.8-1.2-1.2-1.8
					c-0.4-0.6-0.8-1.2-1.2-1.8c-0.4-0.6-0.8-1.2-1.2-1.8c-0.4-0.6-0.8-1.2-1.2-1.8c-0.4-0.6-0.8-1.2-1.2-1.8
					c-0.4-0.6-0.8-1.2-1.2-1.8c-0.4-0.6-0.8-1.2-1.2-1.8c-0.4-0.6-0.8-1.2-1.2-1.8c-0.4-0.6-0.8-1.2-1.2-1.8
					c-0.4-0.6-0.8-1.2-1.2-1.8c-0.4-0.6-0.8-1.2-1.2-1.8c-0.4-0.6-0.8-1.2-1.2-1.8c-0.4-0.6-0.8-1.2-1.2-1.8
					c-0.4-0.6-0.8-1.2-1.2-1.8c-0.4-0.6-0.8-1.2-1.2-1.8c-0.4-0.6-0.8-1.2-1.2-1.8c-0.4-0.6-0.8-1.2-1.2-1.8
					c-0.4-0.6-0.8-1.2-1.2-1.8c-0.4-0.6-0.8-1.2-1.2-1.8c-5.9-9.4-12.9-18.3-20.9-26.7l0,0l0,0c-0.5-0.5-1.5-1.6-2.4-2.5
					c-10.3-10.8-23-20.4-37.6-28.3c-5.2-2.8-11-5.7-14.9-7.3c-16.3-6.7-33.3-10.7-50.4-11.8l0,0c-2.6-0.2-4.3-0.2-7.4-0.3
					c-2.5,0-94,0-104.4,0c-108.7,0-109.7,0-110.2,0.1c-7.4,0.3-14.5,2.7-20.7,6.8c-9.5,5.8-16.3,17.1-17.8,30
					c-0.3,2.2-0.3,5.8-0.2,8.1c0.4,5.5,1.8,10.5,4.1,15.4c0.9,1.8,1.9,3.7,3.1,5.4c0.4,0.6,0.8,1.2,1.2,1.8c0.4,0.6,0.8,1.2,1.2,1.8
					c0.4,0.6,0.8,1.2,1.2,1.8c0.4,0.6,0.8,1.2,1.2,1.8c0.4,0.6,0.8,1.2,1.2,1.8c0.4,0.6,0.8,1.2,1.2,1.8c0.4,0.6,0.8,1.2,1.2,1.8
					c0.4,0.6,0.8,1.2,1.2,1.8c0.4,0.6,0.8,1.2,1.2,1.8c0.4,0.6,0.8,1.2,1.2,1.8c0.4,0.6,0.8,1.2,1.2,1.8c0.4,0.6,0.8,1.2,1.2,1.8
					c0.4,0.6,0.8,1.2,1.2,1.8c0.4,0.6,0.8,1.2,1.2,1.8c0.4,0.6,0.8,1.2,1.2,1.8c0.4,0.6,0.8,1.2,1.2,1.8c0.4,0.6,0.8,1.2,1.2,1.8
					c0.4,0.6,0.8,1.2,1.2,1.8c0.4,0.6,0.8,1.2,1.2,1.8c0.4,0.6,0.8,1.2,1.2,1.8c0.4,0.6,0.8,1.2,1.2,1.8c0.4,0.6,0.8,1.2,1.2,1.8
					c0.4,0.6,0.8,1.2,1.2,1.8c0.4,0.6,0.8,1.2,1.2,1.8c0.4,0.6,0.8,1.2,1.2,1.8c0.4,0.6,0.8,1.2,1.2,1.8c0.4,0.6,0.8,1.2,1.2,1.8
					c0.4,0.6,0.8,1.2,1.2,1.8c0.4,0.6,0.8,1.2,1.2,1.8c0.4,0.6,0.8,1.2,1.2,1.8c0.4,0.6,0.8,1.2,1.2,1.8c0.4,0.6,0.8,1.2,1.2,1.8
					c0.4,0.6,0.8,1.2,1.2,1.8c0.4,0.6,0.8,1.2,1.2,1.8c0.4,0.6,0.8,1.2,1.2,1.8c0.4,0.6,0.8,1.2,1.2,1.8c0.4,0.6,0.8,1.2,1.2,1.8
					c0.4,0.6,0.8,1.2,1.2,1.8c1.5,2.4,3.2,4.7,5,6.7c0.3,0.3,35.4,36.8,36.9,38.1l0,0l0,0c2.8,2.4,5.7,4.4,9,6.1
					c4.1,2,8.1,3.3,12.8,4h0.1h0.1l0.9,0.1l1.2,0.2h1.2h90.6c37.2,0,65.2,0,79.7,0.1c-1.5,2.6-3.2,4.9-5.1,7.1c-2,2.2-2.3,2.5-3,3.2
					c-3.1,3.1-6.8,5.5-11.6,7.5l0,0l0,0c-0.6,0.3-1.8,0.8-2.7,1.2c-1.9,0.9-4.4,1.8-6.8,2.2c-1.4,0.3-2.7,0.5-5.4,0.7
					c-4.7,0.1-46.1,0.1-124.8,0.1c-51.1,0-80.6,0-98.8,0c-18.1,0-27.6,0.1-28.6,0.2h-0.1h-0.1c-5.3,0.8-9.5,2.1-13.8,4.3
					c-13,7.3-21.3,19-23.5,32.4v0.1v0.1v0.1c0,0.2-0.1,0.4-0.1,0.6c-0.2,1.7-0.4,8.1-0.4,19.4v2.9c0,20.2,0,20.6,0.3,23.4
					c0.9,6.9,3.3,13.2,7.1,18.9c0.4,0.6,0.8,1.2,1.2,1.8c0.4,0.6,0.8,1.2,1.2,1.8c0.4,0.6,0.8,1.2,1.2,1.8c0.4,0.6,0.8,1.2,1.2,1.8
					c0.4,0.6,0.8,1.2,1.2,1.8c0.4,0.6,0.8,1.2,1.2,1.8c0.4,0.6,0.8,1.2,1.2,1.8c0.4,0.6,0.8,1.2,1.2,1.8c0.4,0.6,0.8,1.2,1.2,1.8
					c0.4,0.6,0.8,1.2,1.2,1.8c0.4,0.6,0.8,1.2,1.2,1.8c0.4,0.6,0.8,1.2,1.2,1.8c0.4,0.6,0.8,1.2,1.2,1.8c0.4,0.6,0.8,1.2,1.2,1.8
					c0.4,0.6,0.8,1.2,1.2,1.8c0.4,0.6,0.8,1.2,1.2,1.8c0.4,0.6,0.8,1.2,1.2,1.8c0.4,0.6,0.8,1.2,1.2,1.8c0.4,0.6,0.8,1.2,1.2,1.8
					c0.4,0.6,0.8,1.2,1.2,1.8c0.4,0.6,0.8,1.2,1.2,1.8c0.4,0.6,0.8,1.2,1.2,1.8c0.4,0.6,0.8,1.2,1.2,1.8c0.4,0.6,0.8,1.2,1.2,1.8
					c0.4,0.6,0.8,1.2,1.2,1.8c0.4,0.6,0.8,1.2,1.2,1.8c0.4,0.6,0.8,1.2,1.2,1.8c0.4,0.6,0.8,1.2,1.2,1.8c0.4,0.6,0.8,1.2,1.2,1.8
					c0.4,0.6,0.8,1.2,1.2,1.8c0.4,0.6,0.8,1.2,1.2,1.8c0.4,0.6,0.8,1.2,1.2,1.8c0.4,0.6,0.8,1.2,1.2,1.8c0.4,0.6,0.8,1.2,1.2,1.8
					c0.4,0.6,0.8,1.2,1.2,1.8c0.4,0.6,0.8,1.2,1.2,1.8c0.4,0.6,0.8,1.2,1.2,1.8c0.4,0.6,0.8,1.2,1.2,1.8c0.4,0.6,0.8,1.2,1.2,1.8
					c4,5.9,9.6,10.8,15.9,14l0,0l0,0c4.3,2.1,9,3.6,13.5,4.1h0.1c0.1,0,0.1,0,0.2,0c1.3,0.2,2.2,0.2,12.6,0.2c6.4,0,15.5,0,26.9,0
					c22.6,0,53.8,0,88.1,0c66.3,0,98.5,0,113.3,0.1c-1.7,2.8-3.6,5.4-5.6,7.6l0,0l0,0c-0.4,0.4-1.1,1.2-1.6,1.7l0,0l0,0
					c-2.1,2.3-4.9,4.5-8.1,6.3c-2.5,1.4-6.6,3.1-9.3,3.9c-2.9,0.9-5.7,1.3-9.7,1.6c-3.8,0-32.5,0.1-83.5,0.1c-39.4,0-60.2,0-71.2,0
					c-13.6,0-13.7,0-15.3,0.2c-4.9,0.7-9.2,2-13.4,4.1c-4.5,2.3-8.5,5.3-11.9,9c-6.6,7.2-10.5,16.2-11.2,25.9
					c-0.1,1-0.1,1.5-0.1,21.3c0,20.2,0,20.3,0.3,22.2c0.9,6.9,3.1,12.9,6.7,18.4c0.1,0.2,0.2,0.3,0.3,0.5c0.3,0.5,0.6,0.9,0.8,1.3
					c0.1,0.2,0.2,0.3,0.3,0.5c0.3,0.5,0.5,0.9,0.8,1.3c0.1,0.2,0.2,0.3,0.3,0.5c0.3,0.5,0.5,0.9,0.8,1.3c0.1,0.2,0.2,0.3,0.3,0.5
					c0.3,0.5,0.6,0.9,0.8,1.3c0.1,0.2,0.2,0.3,0.3,0.5c0.3,0.4,0.6,0.9,0.8,1.3c0.1,0.2,0.2,0.3,0.3,0.5c0.3,0.5,0.5,0.9,0.8,1.3
					c0.1,0.2,0.2,0.3,0.3,0.5c0.3,0.5,0.5,0.9,0.8,1.3c0.1,0.2,0.2,0.3,0.3,0.5c0.3,0.5,0.6,0.9,0.8,1.3c0.1,0.2,0.2,0.3,0.3,0.5
					c0.3,0.5,0.6,0.9,0.8,1.3c0.1,0.2,0.2,0.3,0.3,0.5c0.3,0.5,0.6,0.9,0.8,1.3c0.1,0.2,0.2,0.3,0.3,0.5c0.3,0.5,0.5,0.9,0.8,1.3
					c0.1,0.2,0.2,0.3,0.3,0.5c0.3,0.5,0.6,0.9,0.8,1.3c0.1,0.2,0.2,0.3,0.3,0.5c0.3,0.4,0.6,0.9,0.8,1.3c0.1,0.2,0.2,0.3,0.3,0.5
					c0.3,0.4,0.6,0.9,0.8,1.3c0.1,0.2,0.2,0.3,0.3,0.5c0.3,0.5,0.5,0.9,0.8,1.3c0.1,0.2,0.2,0.3,0.3,0.5c0.3,0.5,0.6,0.9,0.8,1.3
					c0.1,0.2,0.2,0.3,0.3,0.5c0.3,0.5,0.6,0.9,0.8,1.3c0.1,0.2,0.2,0.3,0.3,0.5c0.3,0.5,0.6,0.9,0.8,1.3c0.1,0.2,0.2,0.3,0.3,0.5
					c0.3,0.5,0.5,0.9,0.8,1.3c0.1,0.2,0.2,0.3,0.3,0.5c0.3,0.5,0.5,0.9,0.8,1.3c0.1,0.2,0.2,0.3,0.3,0.5c0.3,0.4,0.6,0.9,0.8,1.3
					c0.1,0.2,0.2,0.3,0.3,0.5c0.3,0.4,0.6,0.9,0.8,1.3c0.1,0.2,0.2,0.3,0.3,0.5c0.3,0.5,0.5,0.9,0.8,1.3c0.1,0.2,0.2,0.3,0.3,0.5
					c0.3,0.5,0.5,0.9,0.8,1.3c0.1,0.2,0.2,0.3,0.3,0.5c0.3,0.5,0.6,0.9,0.8,1.3c0.1,0.2,0.2,0.3,0.3,0.5c0.3,0.5,0.6,0.9,0.8,1.3
					c0.1,0.2,0.2,0.3,0.3,0.5c0.3,0.5,0.5,0.9,0.8,1.3c0.1,0.2,0.2,0.3,0.3,0.5c0.3,0.5,0.5,0.9,0.8,1.3c0.1,0.2,0.2,0.3,0.3,0.5
					c0.3,0.5,0.6,0.9,0.8,1.3c0.1,0.2,0.2,0.3,0.3,0.5c0.3,0.4,0.6,0.9,0.8,1.3c0.1,0.2,0.2,0.3,0.3,0.5c0.3,0.5,0.5,0.9,0.8,1.3
					c0.1,0.2,0.2,0.3,0.3,0.5c0.3,0.5,0.5,0.9,0.8,1.3c0.1,0.2,0.2,0.3,0.3,0.5c0.3,0.5,0.6,0.9,0.8,1.3c0.1,0.2,0.2,0.3,0.3,0.5
					c0.3,0.5,0.6,0.9,0.8,1.3c0.1,0.2,0.2,0.3,0.3,0.5c0.3,0.5,0.6,0.9,0.8,1.3c0.1,0.2,0.2,0.3,0.3,0.5c0.3,0.5,0.6,0.9,0.8,1.3
					c0.1,0.2,0.2,0.3,0.3,0.5c0.3,0.5,0.6,0.9,0.8,1.3c0.1,0.2,0.2,0.3,0.3,0.5c0.3,0.4,0.5,0.9,0.8,1.3c0.1,0.2,0.2,0.3,0.3,0.5
					c0.3,0.4,0.6,0.9,0.8,1.3c5.2,8,12.6,13.8,21.5,16.8c3.6,1.2,7.1,1.9,11,2.1h0.1c0.7,0,1.3,0.1,53.5,0.1
					c4.7,0,114.5,0,116.9-0.1c4.2-0.2,6.6-0.4,9.5-0.7c15.6-1.5,30.8-5.4,45-11.4l0,0c2.1-0.9,4-1.8,6.9-3.2
					c15.9-7.8,29.1-16.8,40.4-27.5c2.3-2.1,4.5-4.4,8.5-8.6c9.9-10.5,18.4-22.2,25.1-34.7c3.8-7.1,7.5-15.6,10.5-23.8
					c5.2-14.7,8.3-30.3,9.2-46.4c0.2-4.5,0.3-11.3,0.2-15.2c-0.2-6.8-0.7-13.2-1.4-18.4c-2.1-16.4-6.2-31.1-12.3-45.1
					c-3.3-7.6-7.3-15-11.9-22.1c-0.4-0.6-0.8-1.2-1.2-1.8c-0.4-0.6-0.8-1.2-1.2-1.8c-0.4-0.6-0.8-1.2-1.2-1.8
					c-0.4-0.6-0.8-1.2-1.2-1.8c-0.4-0.6-0.7-1.1-1.1-1.7c-2.1-4.9-1.8-10.8,0.7-15.3c0.2-0.3,0.6-1,1.3-1.9
					c8.6-12.3,15.3-25.4,20-38.9c0.2-0.5,0.4-1.1,0.4-1.3v0.1c0.5-1.5,1.8-5.8,1.9-5.8c3.9-13,6.2-27,6.9-41.5L494.2,249.7z"/>
				<path class="st2" d="M1330.6,518.9c0-0.1-0.1-0.1-0.1-0.2c-0.3-0.6-0.7-1.1-1-1.7c0-0.1-0.1-0.1-0.1-0.2
					c-0.3-0.6-0.7-1.1-1.1-1.7c0-0.1-0.1-0.1-0.1-0.2c-0.3-0.6-0.7-1.1-1.1-1.7c0-0.1-0.1-0.1-0.1-0.2c-0.3-0.6-0.7-1.1-1-1.7
					c0-0.1-0.1-0.1-0.1-0.2c-0.3-0.6-0.7-1.1-1.1-1.7c0-0.1-0.1-0.1-0.1-0.2c-0.3-0.6-0.7-1.1-1.1-1.7c0-0.1-0.1-0.1-0.1-0.2
					c-0.3-0.6-0.7-1.1-1-1.7c0-0.1-0.1-0.1-0.1-0.2c-0.3-0.6-0.7-1.1-1.1-1.7c0-0.1-0.1-0.1-0.1-0.2c-0.3-0.6-0.7-1.1-1.1-1.7
					c0-0.1-0.1-0.1-0.1-0.2c-0.3-0.6-0.7-1.1-1-1.7c0-0.1-0.1-0.1-0.1-0.2c-0.3-0.6-0.7-1.1-1.1-1.7c0-0.1-0.1-0.1-0.1-0.2
					c-0.3-0.6-0.7-1.1-1-1.7c0-0.1-0.1-0.1-0.1-0.2c-0.3-0.6-0.7-1.1-1-1.7c0-0.1-0.1-0.1-0.1-0.2c-0.3-0.6-0.7-1.1-1.1-1.7
					c0-0.1-0.1-0.1-0.1-0.2c-0.3-0.6-0.7-1.1-1-1.7c0-0.1-0.1-0.1-0.1-0.2c-0.3-0.6-0.7-1.1-1.1-1.7c0-0.1-0.1-0.1-0.1-0.2
					c-0.3-0.6-0.7-1.1-1.1-1.7c0-0.1-0.1-0.1-0.1-0.2c-0.3-0.6-0.7-1.1-1-1.7c0-0.1-0.1-0.1-0.1-0.2c-0.3-0.6-0.7-1.1-1.1-1.7
					c0-0.1-0.1-0.1-0.1-0.2c-0.3-0.6-0.7-1.1-1.1-1.7c0-0.1-0.1-0.1-0.1-0.2c-0.3-0.6-0.7-1.1-1-1.7c0-0.1-0.1-0.1-0.1-0.2
					c-0.3-0.6-0.7-1.1-1.1-1.7c0-0.1-0.1-0.1-0.1-0.2c-0.3-0.6-0.7-1.1-1.1-1.7c0-0.1-0.1-0.1-0.1-0.2c-0.3-0.6-0.7-1.1-1-1.7
					c0-0.1-0.1-0.1-0.1-0.2c-0.3-0.6-0.7-1.1-1.1-1.7c0-0.1-0.1-0.1-0.1-0.2c-0.3-0.6-0.7-1.1-1-1.7c0-0.1-0.1-0.1-0.1-0.2
					c-0.3-0.6-0.7-1.1-1.1-1.7c0-0.1-0.1-0.1-0.1-0.2c-0.3-0.6-0.7-1.1-1.1-1.7c0-0.1-0.1-0.1-0.1-0.2c-0.3-0.6-0.7-1.1-1-1.7
					c0-0.1-0.1-0.1-0.1-0.2c-0.3-0.6-0.7-1.1-1.1-1.7c0-0.1-0.1-0.1-0.1-0.2c-0.3-0.6-0.7-1.1-1.1-1.7c0-0.1-0.1-0.1-0.1-0.2
					c-0.3-0.6-0.7-1.1-1-1.7c0-0.1-0.1-0.1-0.1-0.2c-0.3-0.6-0.7-1.1-1.1-1.7c0-0.1-0.1-0.1-0.1-0.2c-0.3-0.6-0.7-1.1-1.1-1.7
					c0-0.1-0.1-0.1-0.1-0.2c-0.3-0.6-0.7-1.1-1-1.7c0-0.1-0.1-0.1-0.1-0.2c-0.3-0.6-0.7-1.1-1.1-1.7c0-0.1-0.1-0.1-0.1-0.2
					c-0.3-0.6-0.7-1.1-1-1.7c0-0.1-0.1-0.1-0.1-0.2c-0.3-0.6-0.7-1.1-1-1.7c0-0.1-0.1-0.1-0.1-0.2c-0.3-0.6-0.7-1.1-1.1-1.7
					c-5.2-7.8-12.8-13.6-21.6-16.5c-2.5-0.8-5-1.4-7.8-1.8c-1.1-0.2-7.4-0.2-18.8-0.2c-14.9,0-45,0-92.8,0c-15.8,0-30.8,0-44.3,0
					c-61.8,0-64.8,0-65.6,0h-0.1c-6.1,0.4-12.3,2.3-17.7,5.4c-3.2,1.9-5.9,3.9-8.8,6.8c-0.2,0.2-34.2,35.4-35.8,37.2
					c-5.1,5.9-8.5,13.1-9.8,20.7c-0.5,2.7-0.6,4.4-0.6,7.4s0.2,5.1,0.7,7.9c0.7,4,2.1,8.2,3.9,11.8l0,0l0,0c0.8,1.7,1.8,3.3,2.8,4.8
					c0.4,0.6,0.8,1.2,1.2,1.8s0.8,1.2,1.2,1.8s0.8,1.2,1.2,1.8s0.8,1.2,1.2,1.8s0.8,1.2,1.2,1.8s0.8,1.2,1.2,1.8s0.8,1.2,1.2,1.8
					s0.8,1.2,1.2,1.8s0.8,1.2,1.2,1.8s0.8,1.2,1.2,1.8s0.8,1.2,1.2,1.8s0.8,1.2,1.2,1.8s0.8,1.2,1.2,1.8s0.8,1.2,1.2,1.8
					s0.8,1.2,1.2,1.8s0.8,1.2,1.2,1.8s0.8,1.2,1.2,1.8s0.8,1.2,1.2,1.8s0.8,1.2,1.2,1.8s0.8,1.2,1.2,1.8s0.8,1.2,1.2,1.8
					s0.8,1.2,1.2,1.8s0.8,1.2,1.2,1.8s0.8,1.2,1.2,1.8s0.8,1.2,1.2,1.8s0.8,1.2,1.2,1.8s0.8,1.2,1.2,1.8s0.8,1.2,1.2,1.8
					s0.8,1.2,1.2,1.8s0.8,1.2,1.2,1.8s0.8,1.2,1.2,1.8s0.8,1.2,1.2,1.8s0.8,1.2,1.2,1.8s0.8,1.2,1.2,1.8s0.8,1.2,1.2,1.8
					s0.8,1.2,1.2,1.8s0.8,1.2,1.2,1.8s0.8,1.2,1.2,1.8c4.4,7.2,10.7,13,18.2,16.4c3.9,1.8,7.9,2.9,12.5,3.5
					c1.6,0.2,1.6,0.2,21.3,0.2c16.3,0,46.3,0,106.2,0c20.7,0,38.6,0,53.9,0c69.9,0,71.9,0,72.8-0.1c5.8-0.3,11.1-1.7,16.1-4.3
					c12.1-6,20.6-17.7,22.8-31.2c0-0.2,0.1-0.3,0.1-0.5s0.1-0.4,0.1-0.5c0.4-2.5,0.4-2.7,0.4-21.5v-2.2c0-20.5,0-20.7-0.3-22.6
					C1336.6,530.6,1334.3,524.5,1330.6,518.9L1330.6,518.9z"/>
				<path class="st2" d="M1921,145.8c0-22.6-0.1-34.4-0.2-35.5l0,0c-0.8-7.3-3.2-13.8-7.1-19.5c-0.4-0.6-0.8-1.2-1.2-1.8
					c-0.4-0.6-0.8-1.2-1.2-1.8c-0.4-0.6-0.8-1.2-1.2-1.8c-0.4-0.6-0.8-1.2-1.2-1.8c-0.4-0.6-0.8-1.2-1.2-1.8
					c-0.4-0.6-0.8-1.2-1.2-1.8c-0.4-0.6-0.8-1.2-1.2-1.8c-0.4-0.6-0.8-1.2-1.2-1.8c-0.4-0.6-0.8-1.2-1.2-1.8
					c-0.4-0.6-0.8-1.2-1.2-1.8c-0.4-0.6-0.8-1.2-1.2-1.8c-0.4-0.6-0.8-1.2-1.2-1.8c-0.4-0.6-0.8-1.2-1.2-1.8
					c-0.4-0.6-0.8-1.2-1.2-1.8c-0.4-0.6-0.8-1.2-1.2-1.8c-0.4-0.6-0.8-1.2-1.2-1.8c-0.4-0.6-0.8-1.2-1.2-1.8
					c-0.4-0.6-0.8-1.2-1.2-1.8c-0.4-0.6-0.8-1.2-1.2-1.8c-0.4-0.6-0.8-1.2-1.2-1.8c-0.4-0.6-0.8-1.2-1.2-1.8
					c-0.4-0.6-0.8-1.2-1.2-1.8c-0.4-0.6-0.8-1.2-1.2-1.8c-0.4-0.6-0.8-1.2-1.2-1.8c-0.4-0.6-0.8-1.2-1.2-1.8
					c-0.4-0.6-0.8-1.2-1.2-1.8c-0.4-0.6-0.8-1.2-1.2-1.8c-0.4-0.6-0.8-1.2-1.2-1.8c-0.4-0.6-0.8-1.2-1.2-1.8
					c-0.4-0.6-0.8-1.2-1.2-1.8c-0.4-0.6-0.8-1.2-1.2-1.8c-0.4-0.6-0.8-1.2-1.2-1.8c-0.4-0.6-0.8-1.2-1.2-1.8
					c-0.4-0.6-0.8-1.2-1.2-1.8c-0.4-0.6-0.8-1.2-1.2-1.8c-0.4-0.6-0.8-1.2-1.2-1.8c-0.4-0.6-0.8-1.2-1.2-1.8
					c-0.4-0.6-0.8-1.2-1.2-1.8c-1.2-2-2.6-3.9-4.2-5.7l0,0l0,0c-1.3-1.5-3.4-3.5-4.9-4.8c-7.6-6.3-17-9.7-26.7-9.7
					c-1.9,0-3.8,0.1-5.7,0.4c-9,1.3-16.9,5.3-23.5,12l0,0l0,0c-1.1,1.1-30.1,33.9-42.6,47.9c-73,82.4-140.8,159-144.8,163.5
					c-0.2,0.2-0.4,0.4-0.6,0.5c-1,0.8-2,1.2-3.2,1.4c-0.3,0-0.8,0-1.3,0c-0.1,0-0.2,0-0.2,0c-1.5-0.2-2.7-0.7-3.8-1.7
					c-2.8-3.1-23-25.8-51.4-57.9c-11.5-13-25.4-28.6-39.3-44.3l-20.9-23.6l-1.3-1.5l-1.2-1.4l-0.7-0.8l-3.6-4.1
					c-6.2-7-12-13.6-17.3-19.5l-8.9-10c-40.1-45.2-42.9-48.2-43.4-48.8c-0.6-0.6-1.5-1.5-2.3-2.2c-6.3-5.6-14-9-22.2-9.9
					c-2.1-0.2-5.2-0.3-5.3-0.3c-0.9,0-1.6,0-2.3,0.1h-0.1h-0.1c-0.2,0-0.4,0-0.6,0.1h-0.1c-4.6,0.4-9.4,1.7-13.7,3.7
					c-11.6,5.4-20.1,15.6-23.1,28.1l0,0c-0.6,2.5-1,4.8-1.2,7.5v0.1c-0.2,2-0.2,59.6,0,61.6c0.6,7.7,3.1,14.9,7.3,21.1
					c0.4,0.6,0.8,1.2,1.2,1.8c0.4,0.6,0.8,1.2,1.2,1.8c0.4,0.6,0.8,1.2,1.2,1.8c0.4,0.6,0.8,1.2,1.2,1.8c0.4,0.6,0.8,1.2,1.2,1.8
					c0.4,0.6,0.8,1.2,1.2,1.8c0.4,0.6,0.8,1.2,1.2,1.8c0.4,0.6,0.8,1.2,1.2,1.8c0.4,0.6,0.8,1.2,1.2,1.8c0.4,0.6,0.8,1.2,1.2,1.8
					c0.4,0.6,0.8,1.2,1.2,1.8c0.4,0.6,0.8,1.2,1.2,1.8c0.4,0.6,0.8,1.2,1.2,1.8c0.4,0.6,0.8,1.2,1.2,1.8c0.4,0.6,0.8,1.2,1.2,1.8
					c0.4,0.6,0.8,1.2,1.2,1.8c0.4,0.6,0.8,1.2,1.2,1.8c0.4,0.6,0.8,1.2,1.2,1.8c0.4,0.6,0.8,1.2,1.2,1.8c0.4,0.6,0.8,1.2,1.2,1.8
					c0.4,0.6,0.8,1.2,1.2,1.8c0.4,0.6,0.8,1.2,1.2,1.8c0.4,0.6,0.8,1.2,1.2,1.8c0.4,0.6,0.8,1.2,1.2,1.8c0.4,0.6,0.8,1.2,1.2,1.8
					c0.4,0.6,0.8,1.2,1.2,1.8c0.4,0.6,0.8,1.2,1.2,1.8c0.4,0.6,0.8,1.2,1.2,1.8c0.4,0.6,0.8,1.2,1.2,1.8c0.4,0.6,0.8,1.2,1.2,1.8
					c0.4,0.6,0.8,1.2,1.2,1.8c0.4,0.6,0.8,1.2,1.2,1.8c0.4,0.6,0.8,1.2,1.2,1.8c0.4,0.6,0.8,1.2,1.2,1.8c0.4,0.6,0.8,1.2,1.2,1.8
					c0.4,0.6,0.8,1.2,1.2,1.8c0.4,0.6,0.8,1.2,1.2,1.8c0.4,0.6,0.8,1.2,1.2,1.8c1,1.7,2.1,3.3,3.4,4.8l0,0
					c3.1,3.5,222.7,251.2,224.1,252.7c6.2,6.6,14.5,11.1,23.4,12.6c2.8,0.5,5.5,0.5,6.9,0.5c1.2,0,2.3-0.1,3.3-0.1
					c10-0.9,19-5.2,26-12.3c0.9-1,6.6-7.3,64-71.4c2.8-3.1,5.6-6.2,8.2-9.2v0.8c0,63,0,99.5,0,118.1c0,20.6,0,20.9,0.2,22.5
					c0.7,6.3,2.5,11.8,5.5,17c0.5,0.9,1.1,1.8,1.7,2.7c0.4,0.6,0.8,1.2,1.2,1.8c0.4,0.6,0.8,1.2,1.2,1.8c0.4,0.6,0.8,1.2,1.2,1.8
					c0.4,0.6,0.8,1.2,1.2,1.8c0.4,0.6,0.8,1.2,1.2,1.8c0.4,0.6,0.8,1.2,1.2,1.8c0.4,0.6,0.8,1.2,1.2,1.8c0.4,0.6,0.8,1.2,1.2,1.8
					c0.4,0.6,0.8,1.2,1.2,1.8c0.4,0.6,0.8,1.2,1.2,1.8c0.4,0.6,0.8,1.2,1.2,1.8c0.4,0.6,0.8,1.2,1.2,1.8c0.4,0.6,0.8,1.2,1.2,1.8
					c0.4,0.6,0.8,1.2,1.2,1.8c0.4,0.6,0.8,1.2,1.2,1.8c0.4,0.6,0.8,1.2,1.2,1.8c0.4,0.6,0.8,1.2,1.2,1.8c0.4,0.6,0.8,1.2,1.2,1.8
					c0.4,0.6,0.8,1.2,1.2,1.8c0.4,0.6,0.8,1.2,1.2,1.8c0.4,0.6,0.8,1.2,1.2,1.8c0.4,0.6,0.8,1.2,1.2,1.8c0.4,0.6,0.8,1.2,1.2,1.8
					c0.4,0.6,0.8,1.2,1.2,1.8c0.4,0.6,0.8,1.2,1.2,1.8c0.4,0.6,0.8,1.2,1.2,1.8c0.4,0.6,0.8,1.2,1.2,1.8c0.4,0.6,0.8,1.2,1.2,1.8
					c0.4,0.6,0.8,1.2,1.2,1.8c0.4,0.6,0.8,1.2,1.2,1.8c0.4,0.6,0.8,1.2,1.2,1.8c0.4,0.6,0.8,1.2,1.2,1.8c0.4,0.6,0.8,1.2,1.2,1.8
					c0.4,0.6,0.8,1.2,1.2,1.8c0.4,0.6,0.8,1.2,1.2,1.8c0.4,0.6,0.8,1.2,1.2,1.8c0.4,0.6,0.8,1.2,1.2,1.8c0.4,0.6,0.8,1.2,1.2,1.8
					c1.7,2.8,3.6,5.2,6,7.7c3.3,3.4,6.9,6,11.2,8.2c4.3,2.1,8.7,3.5,13.7,4.1l0,0c1.2,0.2,7.9,0.2,20,0.2c4.1,0,7.3,0,9.8,0
					c8.2,0,10,0,12.4-0.3c7.1-0.9,13.9-3.7,19.6-8c7.7-5.8,13.3-14.3,15.7-23.9c0.4-1.8,0.8-3.7,1-5.7c0.1-1.1,0.2-13,0.2-35.8
					c0-30.3,0-87,0-200.4s0-170.4,0-200.7L1921,145.8z"/>
				<g>
					<path class="st2" d="M1335.3,102.6c-1.2-3.5-2.9-6.8-4.9-9.7c-0.4-0.6-0.8-1.2-1.2-1.8c-0.4-0.6-0.8-1.2-1.2-1.8
						c-0.4-0.6-0.8-1.2-1.2-1.8c-0.4-0.6-0.8-1.2-1.2-1.8c-0.4-0.6-0.8-1.2-1.2-1.8c-0.4-0.6-0.8-1.2-1.2-1.8
						c-0.4-0.6-0.8-1.2-1.2-1.8c-0.4-0.6-0.8-1.2-1.2-1.8c-0.4-0.6-0.8-1.2-1.2-1.8c-0.4-0.6-0.8-1.2-1.2-1.8
						c-0.4-0.6-0.8-1.2-1.2-1.8c-0.4-0.6-0.8-1.2-1.2-1.8c-0.4-0.6-0.8-1.2-1.2-1.8c-0.4-0.6-0.8-1.2-1.2-1.8
						c-0.4-0.6-0.8-1.2-1.2-1.8c-0.4-0.6-0.8-1.2-1.2-1.8c-0.4-0.6-0.8-1.2-1.2-1.8c-0.4-0.6-0.8-1.2-1.2-1.8
						c-0.4-0.6-0.8-1.2-1.2-1.8c-0.4-0.6-0.8-1.2-1.2-1.8c-0.4-0.6-0.8-1.2-1.2-1.8c-0.4-0.6-0.8-1.2-1.2-1.8
						c-0.4-0.6-0.8-1.2-1.2-1.8c-0.4-0.6-0.8-1.2-1.2-1.8c-0.4-0.6-0.8-1.2-1.2-1.8c-0.4-0.6-0.8-1.2-1.2-1.8
						c-0.4-0.6-0.8-1.2-1.2-1.8c-0.4-0.6-0.8-1.2-1.2-1.8c-0.4-0.6-0.8-1.2-1.2-1.8c-0.4-0.6-0.8-1.2-1.2-1.8
						c-0.4-0.6-0.8-1.2-1.2-1.8c-0.4-0.6-0.8-1.2-1.2-1.8c-0.4-0.6-0.8-1.2-1.2-1.8c-0.4-0.6-0.8-1.2-1.2-1.8
						c-0.4-0.6-0.8-1.2-1.2-1.8c-0.4-0.6-0.8-1.2-1.2-1.8c-0.4-0.6-0.8-1.2-1.2-1.8c-0.4-0.6-0.8-1.2-1.2-1.8
						c-5.8-9.5-15-16.4-25.9-19c-2.6-0.6-4.8-0.9-7.6-1.1l0,0c-0.6,0-3.4-0.1-117.7-0.1c-132,0-133.1,0-133.6,0.1
						c-15,0.7-28.1,9.3-35,23.1c-3.9,7.9-5.4,16.6-4.3,25.2c0.9,6.7,3.2,12.9,6.9,18.4c0.4,0.6,0.8,1.2,1.2,1.8
						c0.4,0.6,0.8,1.2,1.2,1.8c0.4,0.6,0.8,1.2,1.2,1.8c0.4,0.6,0.8,1.2,1.2,1.8c0.4,0.6,0.8,1.2,1.2,1.8c0.4,0.6,0.8,1.2,1.2,1.8
						c0.4,0.6,0.8,1.2,1.2,1.8c0.4,0.6,0.8,1.2,1.2,1.8c0.4,0.6,0.8,1.2,1.2,1.8c0.4,0.6,0.8,1.2,1.2,1.8c0.4,0.6,0.8,1.2,1.2,1.8
						c0.4,0.6,0.8,1.2,1.2,1.8c0.4,0.6,0.8,1.2,1.2,1.8c0.4,0.6,0.8,1.2,1.2,1.8c0.4,0.6,0.8,1.2,1.2,1.8c0.4,0.6,0.8,1.2,1.2,1.8
						c0.4,0.6,0.8,1.2,1.2,1.8c0.4,0.6,0.8,1.2,1.2,1.8c0.4,0.6,0.8,1.2,1.2,1.8c0.4,0.6,0.8,1.2,1.2,1.8c0.4,0.6,0.8,1.2,1.2,1.8
						c0.4,0.6,0.8,1.2,1.2,1.8c0.4,0.6,0.8,1.2,1.2,1.8c0.4,0.6,0.8,1.2,1.2,1.8c0.4,0.6,0.8,1.2,1.2,1.8c0.4,0.6,0.8,1.2,1.2,1.8
						c0.4,0.6,0.8,1.2,1.2,1.8c0.4,0.6,0.8,1.2,1.2,1.8c0.4,0.6,0.8,1.2,1.2,1.8c0.4,0.6,0.8,1.2,1.2,1.8c0.4,0.6,0.8,1.2,1.2,1.8
						c0.4,0.6,0.8,1.2,1.2,1.8c0.4,0.6,0.8,1.2,1.2,1.8s0.8,1.2,1.2,1.8s0.8,1.2,1.2,1.8s0.8,1.2,1.2,1.8s0.8,1.2,1.2,1.8
						s0.8,1.2,1.2,1.8c1.4,2.4,3.1,4.6,5,6.7l0,0l0,0c0.2,0.2,34.1,35.5,35.5,36.9l0,0l0,0c6.6,6.3,14.8,10.2,23.7,11.4
						c1.6,0.2,1.7,0.2,18.1,0.2c14.2,0,40.7,0,93.7,0c73.2,0,110.3-0.1,111.4-0.2c7.7-0.9,15-3.9,21-8.6
						c9.4-7.4,15.1-18.2,16.1-30.3c0.2-1.9,0.2-40.1,0-42C1337.4,109.8,1336.6,106.1,1335.3,102.6L1335.3,102.6z"/>
					<path class="st2" d="M1189.2,196.8c-53,0-79.5,0-93.7,0c-16.6,0-16.6,0-18.3-0.2c-9.3-1.2-17.9-5.3-24.8-11.9l-0.2-0.1
						c-1.5-1.5-35.4-36.7-35.6-36.9c-2-2.2-3.7-4.5-5.3-7c-0.4-0.6-0.8-1.2-1.2-1.8s-0.8-1.2-1.2-1.8s-0.8-1.2-1.2-1.8
						s-0.8-1.2-1.2-1.8s-0.8-1.2-1.2-1.8s-0.8-1.2-1.2-1.8s-0.8-1.2-1.2-1.8c-0.4-0.6-0.8-1.2-1.2-1.8c-0.4-0.6-0.8-1.2-1.2-1.8
						c-0.4-0.6-0.8-1.2-1.2-1.8c-0.4-0.6-0.8-1.2-1.2-1.8c-0.4-0.6-0.8-1.2-1.2-1.8c-0.4-0.6-0.8-1.2-1.2-1.8
						c-0.4-0.6-0.8-1.2-1.2-1.8c-0.4-0.6-0.8-1.2-1.2-1.8c-0.4-0.6-0.8-1.2-1.2-1.8c-0.4-0.6-0.8-1.2-1.2-1.8
						c-0.4-0.6-0.8-1.2-1.2-1.8c-0.4-0.6-0.8-1.2-1.2-1.8c-0.4-0.6-0.8-1.2-1.2-1.8c-0.4-0.6-0.8-1.2-1.2-1.8
						c-0.4-0.6-0.8-1.2-1.2-1.8c-0.4-0.6-0.8-1.2-1.2-1.8c-0.4-0.6-0.8-1.2-1.2-1.8c-0.4-0.6-0.8-1.2-1.2-1.8
						c-0.4-0.6-0.8-1.2-1.2-1.8c-0.4-0.6-0.8-1.2-1.2-1.8c-0.4-0.6-0.8-1.2-1.2-1.8c-0.4-0.6-0.8-1.2-1.2-1.8
						c-0.4-0.6-0.8-1.2-1.2-1.8c-0.4-0.6-0.8-1.2-1.2-1.8c-0.4-0.6-0.8-1.2-1.2-1.8c-0.4-0.6-0.8-1.2-1.2-1.8
						c-0.4-0.6-0.8-1.2-1.2-1.8c-0.4-0.6-0.8-1.2-1.2-1.8c-0.4-0.6-0.8-1.2-1.2-1.8c-0.4-0.6-0.8-1.2-1.2-1.8
						c-0.4-0.6-0.8-1.2-1.2-1.8c-3.9-5.8-6.3-12.2-7.2-19.2c-1.2-9,0.4-18.1,4.5-26.4c7.2-14.4,20.9-23.5,36.7-24.2
						c0.5,0,1.3-0.1,133.7-0.1c116.3,0,117.2,0,117.8,0.1c3,0.1,5.3,0.5,8,1.1c11.4,2.7,21,9.8,27.2,19.9c0.4,0.6,0.8,1.2,1.2,1.8
						c0.4,0.6,0.8,1.2,1.2,1.8c0.4,0.6,0.8,1.2,1.2,1.8c0.4,0.6,0.8,1.2,1.2,1.8c0.4,0.6,0.8,1.2,1.2,1.8c0.4,0.6,0.8,1.2,1.2,1.8
						c0.4,0.6,0.8,1.2,1.2,1.8c0.4,0.6,0.8,1.2,1.2,1.8c0.4,0.6,0.8,1.2,1.2,1.8c0.4,0.6,0.8,1.2,1.2,1.8c0.4,0.6,0.8,1.2,1.2,1.8
						c0.4,0.6,0.8,1.2,1.2,1.8c0.4,0.6,0.8,1.2,1.2,1.8c0.4,0.6,0.8,1.2,1.2,1.8c0.4,0.6,0.8,1.2,1.2,1.8c0.4,0.6,0.8,1.2,1.2,1.8
						c0.4,0.6,0.8,1.2,1.2,1.8c0.4,0.6,0.8,1.2,1.2,1.8c0.4,0.6,0.8,1.2,1.2,1.8c0.4,0.6,0.8,1.2,1.2,1.8c0.4,0.6,0.8,1.2,1.2,1.8
						c0.4,0.6,0.8,1.2,1.2,1.8c0.4,0.6,0.8,1.2,1.2,1.8c0.4,0.6,0.8,1.2,1.2,1.8c0.4,0.6,0.8,1.2,1.2,1.8c0.4,0.6,0.8,1.2,1.2,1.8
						c0.4,0.6,0.8,1.2,1.2,1.8c0.4,0.6,0.8,1.2,1.2,1.8c0.4,0.6,0.8,1.2,1.2,1.8c0.4,0.6,0.8,1.2,1.2,1.8c0.4,0.6,0.8,1.2,1.2,1.8
						c0.4,0.6,0.8,1.2,1.2,1.8c0.4,0.6,0.8,1.2,1.2,1.8c0.4,0.6,0.8,1.2,1.2,1.8c0.4,0.6,0.8,1.2,1.2,1.8c0.4,0.6,0.8,1.2,1.2,1.8
						c0.4,0.6,0.8,1.2,1.2,1.8c0.4,0.6,0.8,1.2,1.2,1.8c1.6,2.3,2.9,4.7,4,7.3l0.1-0.1l1,2.9c1.3,3.7,2.2,7.6,2.5,11.6
						c0.2,2,0.2,40.4,0,42.4c-1.1,12.7-7,23.9-16.9,31.7c-6.3,5-13.9,8.1-22,9.1C1300.4,196.7,1299.1,196.8,1189.2,196.8z
						 M1055,181.6l0.2,0.1c6.2,6,14.1,9.8,22.6,10.9c1.5,0.2,1.6,0.2,17.8,0.2c14.2,0,40.7,0,93.7,0c72.1,0,109.5-0.1,111.2-0.2
						c7.3-0.9,14.2-3.7,19.9-8.2c8.9-7.1,14.4-17.3,15.4-28.9c0.2-1.9,0.2-39.8,0-41.7c-0.3-3.2-0.9-6.4-1.9-9.4l-0.4-1.1
						c-1.2-3.3-2.7-6.4-4.7-9.3l-0.1-0.1c-0.4-0.6-0.7-1.2-1.1-1.7l-0.1-0.1c-0.3-0.6-0.7-1.2-1.1-1.7l-0.1-0.1
						c-0.3-0.6-0.7-1.2-1.1-1.7l-0.1-0.1c-0.4-0.6-0.7-1.2-1.1-1.7l-0.1-0.1c-0.3-0.6-0.7-1.2-1.1-1.7l-0.1-0.1
						c-0.4-0.6-0.7-1.2-1.1-1.7l-0.1-0.1c-0.3-0.6-0.7-1.2-1.1-1.7l-0.1-0.1c-0.3-0.6-0.7-1.2-1.1-1.7l-0.1-0.1
						c-0.4-0.6-0.7-1.2-1.1-1.7l-0.1-0.1c-0.3-0.6-0.7-1.2-1.1-1.7l-0.1-0.1c-0.3-0.6-0.7-1.2-1.1-1.7l-0.1-0.1
						c-0.4-0.6-0.7-1.2-1.1-1.7l-0.1-0.1c-0.4-0.6-0.7-1.2-1.1-1.7l-0.1-0.1c-0.4-0.6-0.7-1.2-1.1-1.7l-0.1-0.1
						c-0.3-0.6-0.7-1.2-1.1-1.7l-0.1-0.1c-0.4-0.6-0.7-1.2-1.1-1.7l-0.1-0.1c-0.4-0.6-0.7-1.2-1.1-1.7l-0.1-0.1
						c-0.3-0.6-0.7-1.2-1.1-1.7l-0.1-0.1c-0.4-0.6-0.7-1.2-1.1-1.7l-0.1-0.1c-0.4-0.6-0.7-1.2-1.1-1.7l-0.1-0.1
						c-0.3-0.6-0.7-1.2-1.1-1.7l-0.1-0.1c-0.3-0.6-0.7-1.2-1.1-1.7l-0.1-0.1c-0.3-0.6-0.7-1.2-1.1-1.7l-0.1-0.1
						c-0.3-0.6-0.7-1.2-1.1-1.7l-0.1-0.1c-0.3-0.6-0.7-1.2-1.1-1.7l-0.1-0.1c-0.3-0.6-0.7-1.2-1.1-1.7l-0.1-0.1
						c-0.3-0.6-0.7-1.2-1.1-1.7l-0.1-0.1c-0.4-0.6-0.7-1.2-1.1-1.7l-0.1-0.1c-0.3-0.6-0.7-1.2-1.1-1.7l-0.1-0.1
						c-0.3-0.6-0.7-1.2-1.1-1.7l-0.1-0.1c-0.3-0.6-0.7-1.2-1.1-1.7l-0.1-0.1c-0.4-0.6-0.7-1.2-1.1-1.7l-0.1-0.1
						c-0.3-0.6-0.7-1.2-1.1-1.7l-0.1-0.1c-0.3-0.6-0.7-1.2-1.1-1.7l-0.1-0.1c-0.4-0.6-0.7-1.2-1.1-1.7l-0.1-0.1
						c-0.3-0.6-0.7-1.2-1.1-1.7l-0.1-0.1c-0.4-0.6-0.7-1.2-1.1-1.7l-0.1-0.1c-0.3-0.6-0.7-1.2-1.1-1.7l-0.1-0.1
						c-5.6-9.2-14.4-15.7-24.7-18.1c-2.4-0.6-4.5-0.9-7.2-1c-0.7,0-10.4-0.1-117.7-0.1c-132.2,0-133.1,0.1-133.5,0.1
						c-14.3,0.7-26.8,8.9-33.4,22c-3.8,7.5-5.2,15.8-4.1,24.1c0.8,6.4,3,12.3,6.6,17.5l0.1,0.1c0.3,0.6,0.7,1.2,1.1,1.7l0.1,0.1
						c0.4,0.6,0.7,1.2,1.1,1.7l0.1,0.1c0.4,0.6,0.7,1.2,1.1,1.7l0.1,0.1c0.4,0.6,0.7,1.2,1.1,1.7l0.1,0.1c0.3,0.6,0.7,1.2,1.1,1.7
						l0.1,0.1c0.4,0.6,0.7,1.2,1.1,1.7l0.1,0.1c0.3,0.6,0.7,1.2,1.1,1.7l0.1,0.1c0.3,0.6,0.7,1.2,1.1,1.7l0.1,0.1
						c0.4,0.6,0.7,1.2,1.1,1.7l0.1,0.1c0.3,0.6,0.7,1.2,1.1,1.7l0.1,0.1c0.3,0.6,0.7,1.2,1.1,1.7l0.1,0.1c0.4,0.6,0.7,1.2,1.1,1.7
						l0.1,0.1c0.4,0.6,0.7,1.2,1.1,1.7l0.1,0.1c0.3,0.6,0.7,1.2,1.1,1.7l0.1,0.1c0.3,0.6,0.7,1.2,1.1,1.7l0.1,0.1
						c0.4,0.6,0.7,1.2,1.1,1.7l0.1,0.1c0.3,0.6,0.7,1.2,1.1,1.7l0.1,0.1c0.4,0.6,0.7,1.2,1.1,1.7l0.1,0.1c0.3,0.6,0.7,1.2,1.1,1.7
						l0.1,0.1c0.4,0.6,0.7,1.2,1.1,1.7l0.1,0.1c0.3,0.6,0.7,1.2,1.1,1.7l0.1,0.1c0.3,0.6,0.7,1.2,1.1,1.7l0.1,0.1
						c0.3,0.6,0.7,1.2,1.1,1.7l0.1,0.1c0.3,0.6,0.7,1.2,1.1,1.7l0.1,0.1c0.4,0.6,0.7,1.2,1.1,1.7l0.1,0.1c0.3,0.6,0.7,1.2,1.1,1.7
						l0.1,0.1c0.4,0.6,0.7,1.2,1.1,1.7l0.1,0.1c0.3,0.6,0.7,1.2,1.1,1.7l0.1,0.1c0.3,0.6,0.7,1.2,1.1,1.7l0.1,0.1
						c0.4,0.6,0.7,1.2,1.1,1.7l0.1,0.1c0.3,0.6,0.7,1.2,1.1,1.7l0.1,0.1c0.4,0.6,0.7,1.2,1.1,1.7l0.1,0.1c0.3,0.6,0.7,1.2,1.1,1.7
						l0.1,0.1c0.3,0.6,0.7,1.2,1.1,1.7l0.1,0.1c0.3,0.6,0.7,1.2,1.1,1.7l0.1,0.1c0.3,0.6,0.7,1.2,1.1,1.7l0.1,0.1
						c0.4,0.6,0.7,1.2,1.1,1.7l0.1,0.1c0.3,0.6,0.7,1.2,1.1,1.7l0.1,0.1c1.4,2.3,3,4.4,4.7,6.4l0,0
						C1019.9,145.2,1052.7,179.3,1055,181.6z"/>
				</g>
				<path class="st2" d="M1337.4,324.1L1337.4,324.1c0-0.2-0.1-0.3-0.1-0.4v-0.3l0,0c-0.9-5.5-3-10.9-5.8-15.5
					c-0.6-1-1.2-1.9-1.9-2.9c-0.4-0.6-0.8-1.1-1.2-1.7c-0.4-0.5-0.7-1.1-1.1-1.6s-0.7-1.1-1.1-1.6s-0.7-1.1-1.1-1.6
					s-0.7-1.1-1.1-1.6s-0.7-1.1-1.1-1.6s-0.7-1.1-1.1-1.6s-0.7-1.1-1.1-1.6s-0.7-1.1-1.1-1.6s-0.7-1.1-1.1-1.6s-0.7-1.1-1.1-1.6
					c-0.4-0.6-0.7-1.1-1.1-1.6c-0.4-0.6-0.7-1.1-1.1-1.6c-0.3-0.5-0.7-1.1-1.1-1.6c-0.4-0.6-0.7-1.1-1.1-1.7s-0.7-1.1-1.1-1.7
					s-0.7-1.1-1.1-1.7c-0.3-0.6-0.7-1.1-1.1-1.6c-0.3-0.5-0.7-1.1-1.1-1.6c-0.4-0.6-0.7-1.2-1.1-1.7c-0.4-0.6-0.7-1.2-1.1-1.7
					c-0.3-0.6-0.7-1.1-1.1-1.6c-0.3-0.6-0.7-1.1-1.1-1.7s-0.7-1.2-1.1-1.8c-0.3-0.6-0.7-1.1-1.1-1.7c-0.3-0.6-0.7-1.1-1.1-1.7
					s-0.7-1.2-1.1-1.8c-0.3-0.6-0.7-1.2-1.1-1.7c-0.3-0.6-0.7-1.2-1.1-1.7c-0.4-0.6-0.7-1.2-1.1-1.8c-0.3-0.6-0.7-1.1-1-1.7
					c-0.4-0.6-0.7-1.3-1.1-1.9c-0.4-0.6-0.7-1.3-1.1-1.9c-0.3-0.6-0.6-1.1-0.9-1.6c-0.3-0.6-0.6-1.2-1-1.8c-0.4-0.7-0.8-1.4-1.2-2.1
					c-0.3-0.6-0.6-1.2-1-1.8c-0.3-0.6-0.6-1.2-1-1.8c-0.7-1.4-1.4-2.7-2.2-4c-5.2-8.4-13.2-14.8-22.4-17.8c-3-1-5.9-1.6-9-1.9
					c-1.5-0.2-1.7-0.2-78.7-0.2c-17.8,0-39.5,0-66.2,0c-139.4,0-143,0-143.9,0.1c-1.6,0.1-3.8,0.5-5.1,0.7h-0.1
					c-9.8,2-18.5,7.6-24.7,15.6c-3.6,4.7-6.1,10-7.5,15.8c-0.7,2.7-1.1,5.2-1.2,8.1v0.1c-0.1,1.9-0.1,36.6,0,38.6v0.1
					c0.4,8,3,15.6,7.4,22.1c0.4,0.6,0.8,1.2,1.2,1.8c0.4,0.6,0.8,1.2,1.2,1.8c0.4,0.6,0.8,1.2,1.2,1.8c0.4,0.6,0.8,1.2,1.2,1.8
					c0.4,0.6,0.8,1.2,1.2,1.8c0.4,0.6,0.8,1.2,1.2,1.8c0.4,0.6,0.8,1.2,1.2,1.8c0.4,0.6,0.8,1.2,1.2,1.8c0.4,0.6,0.8,1.2,1.2,1.8
					c0.4,0.6,0.8,1.2,1.2,1.8c0.4,0.6,0.8,1.2,1.2,1.8c0.4,0.6,0.8,1.2,1.2,1.8c0.4,0.6,0.8,1.2,1.2,1.8c0.4,0.6,0.8,1.2,1.2,1.8
					c0.4,0.6,0.8,1.2,1.2,1.8c0.4,0.6,0.8,1.2,1.2,1.8c0.4,0.6,0.8,1.2,1.2,1.8c0.4,0.6,0.8,1.2,1.2,1.8c0.4,0.6,0.8,1.2,1.2,1.8
					c0.4,0.6,0.8,1.2,1.2,1.8c0.4,0.6,0.8,1.2,1.2,1.8c0.4,0.6,0.8,1.2,1.2,1.8c0.4,0.6,0.8,1.2,1.2,1.8c0.4,0.6,0.8,1.2,1.2,1.8
					c0.4,0.6,0.8,1.2,1.2,1.8c0.4,0.6,0.8,1.2,1.2,1.8c0.4,0.6,0.8,1.2,1.2,1.8c0.4,0.6,0.8,1.2,1.2,1.8c0.4,0.6,0.8,1.2,1.2,1.8
					c0.4,0.6,0.8,1.2,1.2,1.8c0.4,0.6,0.8,1.2,1.2,1.8c0.4,0.6,0.8,1.2,1.2,1.8c0.4,0.6,0.8,1.2,1.2,1.8c0.4,0.6,0.8,1.2,1.2,1.8
					c0.4,0.6,0.8,1.2,1.2,1.8c0.4,0.6,0.8,1.2,1.2,1.8c0.4,0.6,0.8,1.2,1.2,1.8c0.4,0.6,0.8,1.2,1.2,1.8c1,1.7,2.2,3.3,3.4,4.9
					c1.6,2,4.3,4.7,6.2,6.2c6.3,5,13.3,7.9,21.3,8.9c1.6,0.2,1.6,0.2,23.1,0.2c18.4,0,52.7,0,121.4,0c23.1,0,43.4,0,60.8,0
					c81.4,0,82.1,0,82.8-0.1c2.4-0.1,4.2-0.3,6.4-0.8c5.7-1.1,11.2-3.5,15.9-6.9c9.9-7.1,16.1-17.8,17.5-30c0.2-1.9,0.2-2,0.2-22.1
					v-3.1c0-11.8-0.1-18.6-0.4-20.3v-0.2L1337.4,324.1z"/>
				<path class="st3" d="M1273.5,37.3c-2.8-8-9.4-14-17.4-15.9c-1.5-0.4-2.7-0.5-4.4-0.6c-0.7,0-57.6-0.1-116.8-0.1
					c-64.6,0-132,0-132.8,0.1c-8.7,0.4-16.3,5.4-20.4,13.5c-4.9,9.7-3.4,21.2,3.7,29c0.8,0.9,34.2,35.6,34.8,36.2
					c3.9,3.7,8.6,6,13.9,6.7c0.8,0.1,5.1,0.1,109.5,0.1c90.2,0,108.9,0,109.4-0.1c4.5-0.5,8.7-2.2,12.2-5c5.6-4.4,9-10.9,9.6-18.1
					c0.1-1,0.1-38.2,0-39.1C1274.7,41.7,1274.2,39.4,1273.5,37.3L1273.5,37.3z"/>
				<path class="st3" d="M950.2,310.1c0.8,1,2.6,2.8,3.6,3.5c3.8,3,7.7,4.7,12.6,5.3c0.8,0.1,7.7,0.1,142.3,0.1
					c23.1,0,43.3,0,60.7,0c54.7,0,81.4,0,82.1,0c1.6-0.1,2.4-0.2,3.8-0.4c3.3-0.7,6.4-2,9.2-4c5.8-4.2,9.6-10.6,10.4-18
					c0.1-0.9,0.1-1.9,0.1-20.1v-3.1c0-15.1,0-16.4-0.2-17.7c0-0.1,0-0.2-0.1-0.4c0-0.1,0-0.2,0-0.2c-0.6-3.3-1.8-6.6-3.5-9.4
					c-3.1-5-7.7-8.7-13.1-10.5c-1.8-0.6-3.4-0.9-5.2-1.1c-0.6-0.1-11.3-0.1-77.1-0.1c-17.8,0-39.5,0-66.2,0c-78.3,0-142.5,0-142.6,0
					c-0.7,0.1-2.2,0.3-3,0.4c-5.6,1.1-10.8,4.4-14.3,9.1c-2.2,2.8-3.7,6-4.5,9.5c-0.4,1.7-0.6,3.1-0.7,4.9c-0.1,1.4-0.1,35.4,0,36.9
					C944.7,300.6,946.6,305.7,950.2,310.1L950.2,310.1z"/>
				<path class="st3" d="M1784.4,524.8c2,2.1,4,3.5,6.6,4.8c2.5,1.2,5,2,8,2.4c0.7,0.1,2.3,0.1,17.9,0.1c4.1,0,7.2,0,9.7,0
					c8.1,0,9,0,10.2-0.2c4.1-0.5,8-2.1,11.4-4.7c4.6-3.5,7.9-8.5,9.3-14.2c0.3-1.1,0.5-2.3,0.6-3.5c0.1-0.9,0.1-11.3,0.1-234.2
					s0-233.4-0.1-234.2c-0.6-5.5-2.6-10.1-6-14c-0.7-0.8-2.1-2.2-2.9-2.8c-4.4-3.7-10.1-5.7-15.6-5.7c-1.1,0-2.2,0.1-3.2,0.2
					c-5.2,0.8-9.7,3.1-13.6,7c-0.4,0.4-19.3,21.7-41.9,47.3c-95.7,108.1-144.5,163.2-145,163.8c-0.6,0.7-1.7,1.7-2.5,2.3
					c-3.5,2.8-7.5,4.5-11.9,5.1c-0.8,0.1-2.2,0.2-3.4,0.2c-0.6,0-1.1,0-1.5-0.1c-5.8-0.5-10.9-2.9-15-7
					c-0.4-0.4-23.8-26.7-51.9-58.4c-17.4-19.6-40-45.1-60.2-67.9l-1.3-1.5l-1.2-1.4l-0.7-0.8l-3.6-4.1c-9.9-11.2-19-21.4-26.2-29.5
					c-23.2-26.1-42.4-47.8-42.8-48.2c-0.4-0.4-1-1-1.4-1.3c-3.7-3.2-8.1-5.2-12.8-5.8c-0.6-0.1-2.3-0.1-3.2-0.1c-0.3,0-0.5,0-0.6,0
					h-0.1c-0.2,0-0.5,0.1-0.8,0.1c-2.6,0.2-5.4,1-7.9,2.1c-6.8,3.1-11.8,9.2-13.6,16.5c-0.4,1.6-0.6,3-0.7,4.7c-0.1,1.1-0.1,58,0,59
					c0.4,5.4,2.4,10.5,5.7,14.5c0.6,0.7,222.3,250.6,223.3,251.8c3.6,3.8,8.4,6.4,13.6,7.3c1.2,0.2,2.7,0.3,4.1,0.3
					c0.6,0,1.2,0,1.8-0.1c5.8-0.5,11-3,15.1-7.2c0.4-0.3,28.9-32.2,63.5-70.9c34.5-38.6,63-70.5,63.3-70.7c0.6-0.6,1.6-1.4,2.2-1.8
					c1.9-1.2,4.1-1.8,6.1-1.8c0.3,0,0.6,0,0.8,0c3.1,0.3,5.8,1.6,8,3.7c1.8,1.8,2.8,3.9,3.3,6.6l0.1,0.7v137.6
					c0,131.1,0,137.7,0.1,138.5c0.5,4,1.5,7.2,3.3,10.4C1781.6,521.6,1782.8,523.1,1784.4,524.8L1784.4,524.8z"/>
				<path class="st3" d="M1000.7,531.9c0.7,0.1,8.6,0.1,125.4,0.1c20.8,0,38.7,0,53.9,0c49.6,0,71.2,0,71.8,0c3.4-0.2,6.4-1,9.4-2.5
					c7.1-3.6,12.2-10.6,13.4-18.6c0-0.1,0-0.2,0-0.2c0-0.1,0-0.2,0.1-0.4c0.2-1.3,0.2-2.7,0.2-19v-2.2c0-18.3,0-19.6-0.1-20.3
					c-0.6-4.4-1.9-8-4.2-11.5c-3.1-4.6-7.5-8-12.6-9.7c-1.5-0.5-2.9-0.8-4.7-1.1c-0.7-0.1-6.9-0.1-109.2-0.1c-15.8,0-30.8,0-44.3,0
					c-37.8,0-64.4,0-64.5,0c-3.5,0.2-7.1,1.4-10.2,3.1c-1.9,1.1-3.3,2.2-5.1,4s-34.2,35.4-34.9,36.2c-3,3.5-5.1,7.8-5.9,12.3
					c-0.3,1.7-0.3,2.4-0.3,4.4s0.1,3,0.4,4.7c0.4,2.4,1.3,5.1,2.4,7.2c2.6,5.1,6.7,9.2,11.6,11.4
					C995.6,531,997.8,531.6,1000.7,531.9z"/>
				<path class="st3" d="M117.7,530.8c2.2,0.7,4.1,1.1,6.4,1.2c0.6,0,23.7,0,52.6,0c49,0,114.8,0,116-0.1c3.9-0.2,6.2-0.3,8.7-0.6
					c13.9-1.3,27.3-4.7,39.9-10.1c1.8-0.8,3.3-1.5,6.1-2.9c14.3-7,26-15,36.2-24.5c2-1.9,4.1-4,7.8-7.9c8.9-9.4,16.4-19.9,22.4-31
					c3.4-6.3,6.8-14,9.4-21.4c4.7-13.2,7.4-27,8.2-41.5c0.2-3.9,0.3-10.3,0.2-13.7c-0.2-6.2-0.6-12-1.3-16.8
					c-1.9-14.8-5.5-27.9-11-40.4c-3.7-8.5-8.4-16.8-13.9-24.5c-1.7-2.5-2.9-4.5-3.9-6.7c-4.2-9.9-3.6-21.3,1.5-30.6
					c0.5-0.9,1.1-1.9,2.2-3.4c7.7-11,13.7-22.7,17.9-34.6c0.2-0.7,0.5-1.4,0.5-1.5c0.1-0.3,1.1-3.6,1.5-4.9
					c3.5-11.6,5.6-24.2,6.2-37.3c0.7-14.7-0.5-29-3.6-42.5c-2-8.8-4.7-17-8.6-26.1c-6.9-16.1-16.4-30.3-29-43.5
					c-0.5-0.5-1.5-1.6-2.4-2.5c-9.1-9.5-20.4-18-33.4-25.1c-4.7-2.6-10-5.2-13.2-6.5c-14.6-6-29.6-9.5-44.9-10.5
					c-2.3-0.2-3.8-0.2-6.6-0.3c-1.6,0-52.4-0.1-104.1-0.1s-108.7,0-109.4,0.1c-4.3,0.2-8.3,1.5-11.9,3.9C58,28.7,53.9,35.6,53,43.4
					c-0.1,1.1-0.2,3.6-0.1,4.7c0.2,3.3,1,6.3,2.4,9.2c1,2.1,2.5,4.4,4.1,6c1.1,1.3,35.2,36.5,35.6,36.9c1.6,1.4,3.4,2.6,5.3,3.6
					c2.4,1.2,4.8,1.9,7.6,2.3l0.9,0.1h90.6c49.8,0,90.8,0,90.9,0.1c0.2,0,0.8,0.1,1.3,0.1c4.8,0.3,9.6,1.2,14,2.5
					c2.9,0.9,6.9,2.6,10.1,4.1c4.6,2.3,8.5,5,12.1,8.4c1.2,1.1,1.9,1.8,4.4,4.7c6.1,6.7,11,15.5,13.9,25.1c1.2,3.8,2,8,2.5,11.6
					c1.3,12.1-1,24.7-6.8,36.5c-2.7,5.4-5.8,10-9.5,14.1c-2,2.2-2.6,2.8-3.6,3.8c-4.7,4.7-10.3,8.3-17.2,11.2
					c-0.6,0.2-1.3,0.6-1.6,0.7c-3.2,1.6-7.2,3-11.2,3.7c-2.4,0.5-4.5,0.7-7.9,1c-0.7,0.1-29,0.1-125.6,0.1
					c-97.1,0-124.7,0.1-125.1,0.1c-3.3,0.5-5.7,1.2-8.3,2.5c-7,3.6-11.9,10.6-13.2,18.6c0,0.1,0,0.2,0,0.3s0,0.2-0.1,0.4
					c-0.2,1.2-0.2,2.5-0.2,16.9v2.9c0,18.6,0,19.5,0.2,21.2c0.5,4.2,2,8,4.3,11.4s5.7,6.4,9.3,8.2c2.5,1.2,5.2,2.1,7.8,2.4
					c0.4,0,0.9,0.1,1,0.1s56.3,0.1,124.9,0.1c116.7,0,124.7,0,125.7,0.1c4.9,0.5,8.5,1.1,12.9,2.4c2.5,0.7,6.4,2.1,8.2,2.9
					c4.5,2,8.9,5,13.4,8.9c2.8,2.5,6.2,5.9,8.1,8.3c7.3,8.9,12.6,21.1,14.3,32.9c1.5,10.7,0.1,21.4-4.2,32.4
					c-3.1,7.8-7.5,14.8-12.6,20.2c-0.4,0.4-1,1-1.4,1.5c-3.4,3.7-7.7,7.1-12.5,9.8c-3.6,2-9,4.3-12.9,5.4c-4.2,1.2-8.2,1.9-13.7,2.3
					c-0.7,0-20.4,0.1-84.4,0.1c-78.4,0-83.5,0-84.2,0.1c-3,0.4-5.4,1.1-7.9,2.4c-2.6,1.3-5,3.1-6.9,5.2c-4,4.3-6.3,9.7-6.7,15.5
					c-0.1,0.6-0.1,6.3-0.1,20c0,17.9,0,19.2,0.1,19.9c0.6,4.3,1.8,7.8,4,11.2C108.1,525.6,112.5,529,117.7,530.8L117.7,530.8z"/>
				<path class="st3" d="M572.7,530.4c2,0.8,3.8,1.2,6.2,1.5c0.7,0.1,8.6,0.1,125.4,0.1c20.8,0,38.8,0,54.1,0c49.7,0,71.1,0,71.7,0
					c2.3-0.1,4.2-0.5,6.3-1.2c8.5-2.9,14.9-10.5,16.5-19.7c0-0.1,0-0.2,0-0.3l0,0c0-0.1,0.1-0.2,0.1-0.4c0.2-1.3,0.2-2.7,0.2-18.2
					v-5.9c0-15.6,0-17-0.2-18.3c0-0.2-0.1-0.4-0.1-0.7c-1.5-9.2-8-16.9-16.6-19.7c-1.5-0.5-2.9-0.8-4.7-1.1
					c-0.7-0.1-6.9-0.1-109.2-0.1c-15.8,0-30.8,0-44.3,0c-37.8,0-64.4,0-64.5,0c-2.5,0.2-5.3,0.9-7.7,1.9c-2.6,1.1-5.1,2.7-7.1,4.6
					c-0.9,0.8-34.6,35.8-35.3,36.6c-1.8,2.1-3.4,4.6-4.4,7c-2.4,5.6-2.6,12-0.7,18C560.8,522,566,527.8,572.7,530.4L572.7,530.4z"/>
				<path class="st3" d="M853.1,42.7c0-0.1,0-0.2,0-0.3c-1.4-10.3-8.9-18.7-18.7-21c-1.5-0.4-2.7-0.5-4.4-0.6
					c-0.7,0-62.7-0.1-124.7-0.1s-124.1,0-124.9,0.1c-6.4,0.3-12.4,3.2-16.7,8c-4,4.6-6.4,10.6-6.5,16.8c-0.2,6.6,2.2,13,6.6,17.8
					c0.9,1,34.2,35.6,34.8,36.1c3.9,3.8,8.6,6,13.9,6.7c0.8,0.1,5.1,0.1,109.6,0.1c90.2,0,108.9,0,109.4-0.1c5.5-0.7,10.5-3,14.4-7
					c2.5-2.5,4.4-5.4,5.7-8.7c0.8-2.1,1.3-4.1,1.6-6.6c0.1-0.7,0.1-2.1,0.1-19.9l0,0C853.3,45.8,853.3,44.2,853.1,42.7L853.1,42.7
					L853.1,42.7z"/>
				<path class="st3" d="M522.7,296.2c0.3,2.3,0.8,4.6,1.5,6.5c2.9,7.8,9.2,13.5,16.9,15.5c1.1,0.3,2.2,0.5,3.5,0.6
					c0.8,0.1,7.7,0.1,142.3,0.1c23.1,0,43.3,0,60.7,0c54.7,0,81.4,0,82.1,0c1.6-0.1,2.4-0.2,3.8-0.4c3.5-0.7,6.8-2.2,9.6-4.3
					c5.1-3.9,8.6-9.6,9.8-16c0-0.1,0-0.1,0-0.2v-0.1v-0.1c0-0.1,0-0.3,0.1-0.4c0.2-1.2,0.2-2.5,0.2-16.4v-4c0-13.4,0-19.1,0-19.7
					c-0.8-10.3-7.5-19-16.9-22.1c-1.8-0.6-3.4-0.9-5.2-1.1c-0.6-0.1-11.3-0.1-77.1-0.1c-17.8,0-39.5,0-66.2,0
					c-78.3,0-142.5,0-142.6,0c-0.2,0-0.7,0.1-1.2,0.1c-7,0.9-13.2,4.9-17.2,10.9c-2.1,3.3-3.5,7-4,10.9c-0.2,1.8-0.2,2.9-0.2,21.4
					C522.6,293.9,522.6,295.3,522.7,296.2L522.7,296.2z"/>
			</g>
		</g>
	</g>
</g>
</svg>
