<?xml version="1.0" encoding="utf-8"?>
<!-- Generator: Adobe Illustrator 27.2.0, SVG Export Plug-In . SVG Version: 6.00 Build 0)  -->
<svg version="1.1" xmlns="http://www.w3.org/2000/svg" xmlns:xlink="http://www.w3.org/1999/xlink" x="0px" y="0px"
	 viewBox="0 0 28 28" style="enable-background:new 0 0 28 28;" xml:space="preserve">
<style type="text/css">
	.st0{fill:#FDFEFF;}
</style>
<g id="black_background">
	<rect x="-2.8" y="-2.1" width="34" height="31.4"/>
</g>
<g id="Layer_1">
	<path class="st0" d="M16.8,0.1H2.3c-1.2,0-2.2,1-2.2,2.2v14.4c0,0,0,2.2,2,2.2h2c2,0,2-2.2,2-2.2l0-10.6l10.7,0c0,0,2.2,0,2.2-2v-2
		C19,0.1,16.8,0.1,16.8,0.1L16.8,0.1z"/>
	<path class="st0" d="M11,27.9h14.5c1.2,0,2.2-1,2.2-2.2V11.2c0,0,0-2.2-2-2.2h-2c-2,0-2,2.2-2,2.2l0,10.6l-10.7,0c0,0-2.2,0-2.2,2
		v2C8.9,27.9,11,27.9,11,27.9L11,27.9z"/>
</g>
</svg>
