<?xml version="1.0" encoding="utf-8"?>
<!-- Generator: Adobe Illustrator 27.2.0, SVG Export Plug-In . SVG Version: 6.00 Build 0)  -->
<svg version="1.1" xmlns="http://www.w3.org/2000/svg" xmlns:xlink="http://www.w3.org/1999/xlink" x="0px" y="0px"
	 viewBox="0 0 222 147" style="enable-background:new 0 0 222 147;" xml:space="preserve">
<style type="text/css">
	.st0{stroke:#000000;stroke-miterlimit:10;}
	.st1{fill:#FFFFFF;}
</style>
<g id="black_background">
	<rect x="-7" y="-6" class="st0" width="236" height="157"/>
</g>
<g id="Layer_1">
	<path class="st1" d="M221.3,139.6c1.9,3.2-0.4,7.2-4.1,7.2h-41.3c-1.7,0-3.3-0.9-4.1-2.4L91.6,7.5c-1.9-3.2,0.4-7.2,4.1-7.2h41.6
		c1.7,0,3.3,0.9,4.1,2.4L221.3,139.6z"/>
	<path class="st1" d="M110,102.4c1,1.6,0.9,3.6-0.2,5.1l-23,33.1c-2,2.9-6.3,2.7-8-0.3L1,7.5c-1.9-3.2,0.4-7.2,4.1-7.2h41.6
		c1.7,0,3.2,0.9,4.1,2.3L110,102.4z"/>
	<path class="st1" d="M37.9,138.3c1.9,3.2-0.4,7.2-4.1,7.2H5.3c-2.6,0-4.8-2.1-4.8-4.8V92.6c0-4.8,6.4-6.6,8.8-2.4L37.9,138.3z"/>
</g>
</svg>
