<?xml version="1.0" encoding="utf-8"?>
<!-- Generator: Adobe Illustrator 27.2.0, SVG Export Plug-In . SVG Version: 6.00 Build 0)  -->
<svg version="1.1" id="Layer_1" xmlns="http://www.w3.org/2000/svg" xmlns:xlink="http://www.w3.org/1999/xlink" x="0px" y="0px"
	 viewBox="0 0 210 24" style="enable-background:new 0 0 210 24;" xml:space="preserve">
<style type="text/css">
	.st0{stroke:#000000;stroke-miterlimit:10;}
	.st1{clip-path:url(#SVGID_00000133503914253228511680000001277047436488705211_);}
	.st2{fill:#FFFFFF;}
	.st3{fill-rule:evenodd;clip-rule:evenodd;fill:#FFFFFF;}
</style>
<g id="black_background">
	<rect x="-4" y="-5" class="st0" width="228" height="38"/>
</g>
<g id="Layer_1_00000079475317875834709000000012922784799772684679_">
	<g>
		<g>
			<g>
				<defs>
					<rect id="SVGID_1_" width="162" height="24"/>
				</defs>
				<clipPath id="SVGID_00000095320655244162719120000001752663723616052636_">
					<use xlink:href="#SVGID_1_"  style="overflow:visible;"/>
				</clipPath>
				<g style="clip-path:url(#SVGID_00000095320655244162719120000001752663723616052636_);">
					<path class="st2" d="M27.3,18.9l-4.4,4.8c-0.1,0.1-0.2,0.2-0.3,0.2C22.4,24,22.2,24,22.1,24h-21c-0.1,0-0.2,0-0.3-0.1
						s-0.1-0.1-0.2-0.2s-0.1-0.2,0-0.3c0-0.1,0.1-0.2,0.1-0.3l4.4-4.8C5.3,18.1,5.6,18,5.9,18h21c0.1,0,0.2,0,0.3,0.1
						c0.1,0.1,0.2,0.1,0.2,0.2s0.1,0.2,0,0.3C27.4,18.8,27.3,18.8,27.3,18.9z M22.8,9.4c-0.1-0.1-0.2-0.2-0.3-0.3
						C22.4,9,22.2,9,22.1,9h-21C1,9,0.9,9,0.8,9.1S0.7,9.2,0.6,9.3c0,0.1-0.1,0.2,0,0.3c0,0.1,0.1,0.2,0.1,0.3l4.4,4.7
						c0.1,0.1,0.2,0.2,0.3,0.3S5.8,15,5.9,15h21c0.1,0,0.2,0,0.3-0.1c0.1-0.1,0.2-0.1,0.2-0.2c0-0.1,0.1-0.2,0-0.3s-0.1-0.2-0.1-0.3
						L22.8,9.4z M1.1,5.9h21c0.3,0,0.6-0.1,0.8-0.3l4.4-4.8c0.1-0.1,0.1-0.2,0.1-0.3s0-0.2,0-0.3S27.3,0,27.2,0c-0.1,0-0.2,0-0.3,0
						h-21C5.8,0,5.6,0,5.5,0.1c-0.1,0-0.3,0.1-0.4,0.2L0.7,5.1c0,0.1-0.1,0.1-0.1,0.2s0,0.2,0,0.3c0,0.1,0.1,0.2,0.2,0.2
						C0.9,5.9,1,5.9,1.1,5.9z"/>
				</g>
			</g>
		</g>
	</g>
	<path class="st3" d="M139.9,16.8L134.3,3H129v18.4h3.3V6.6l6.1,14.8h2.8l6.1-14.8v14.8h3.4V3h-5.2L139.9,16.8z M159.9,7.7
		c-4,0-7.2,2.8-7.2,7s3.2,7,7.2,7s7.2-2.8,7.2-7S163.9,7.7,159.9,7.7z M159.9,18.7c-2.2,0-4-1.5-4-4c0-2.6,1.8-4,4-4s4,1.5,4,4
		S162.1,18.7,159.9,18.7z M172.1,9.6c0.8-1,2.5-1.9,4.6-1.9c4.2,0,6.7,3.2,6.7,7s-2.5,7-6.7,7c-2.1,0-3.7-0.9-4.6-1.9v1.6h-3.3V3
		h3.3V9.6z M171.9,14.8c0,2.3,1.8,4,4.2,4l0,0c2.2,0,4.1-1.5,4.1-4.1s-1.9-4.1-4.1-4.1c-2.3,0-4.2,1.7-4.2,4V14.8z M188.4,9h-3.3
		v12.4h3.3V9z M190.9,3h3.3v18.4h-3.3V3z M203.2,7.7c-4.2,0-7.2,3-7.2,7c0,4.2,3,7,7.3,7c3.2,0,5.7-1.8,6.6-4.1l-2.8-1.3
		c-0.6,1.5-2,2.5-3.8,2.5c-2.1,0-3.7-1.2-4.1-3.1H210v-1.1C210,10.7,207.5,7.7,203.2,7.7z M199.2,13.2c0.5-1.8,2.1-2.7,3.8-2.7
		c2.1,0,3.5,1.4,3.7,2.7H199.2z M41.6,8.3c0,2.3,2.1,2.7,6.4,3.2c5.3,0.6,8,1.3,8,4.9c0,3.4-3.3,5.6-7.8,5.6c-4.1,0-7.8-1.8-9.3-5
		l1.3-1.1c1.5,3.1,4.8,4.5,8,4.5c3.6,0,6.2-1.5,6.2-3.9c0-2.5-1.8-2.9-6.9-3.5C43,12.5,40,11.9,40,8.4c0-3.1,3-5.3,7.2-5.3
		c4,0,7,1.8,8.3,4.2l-1.2,1c-1.1-2.2-3.6-3.7-7.1-3.7C43.7,4.6,41.6,6.2,41.6,8.3z M64.5,8.1c-3.9,0-6.8,2.9-6.8,6.9
		c0,4.1,2.9,6.9,6.8,6.9s6.7-2.9,6.7-6.9S68.4,8.1,64.5,8.1z M64.5,20.5c-3,0-5.2-2.2-5.2-5.5s2.2-5.5,5.2-5.5s5.2,2.2,5.2,5.5
		S67.5,20.5,64.5,20.5L64.5,20.5z M73.6,3.3h1.5v18.4h-1.5V3.3z M89.4,19.2v-6.4c0-3-2.1-4.7-5.4-4.7c-2.8,0-5.2,1.5-6,3.7l1.3,0.7
		c0.5-1.7,2.4-2.9,4.6-2.9c2.4,0,3.9,1.3,3.9,3.2v0.6L82.5,14c-2.9,0.3-4.9,1.5-4.9,4.1c0,2.5,2.1,3.9,4.8,3.9
		c2.3,0,4.6-0.9,5.7-2.7v0.4c0.1,1.7,1.4,2.5,3.5,2.1v-1.4C90.2,20.6,89.4,20.4,89.4,19.2z M87.9,16.2c0,3-2.9,4.4-5.5,4.4
		c-2,0-3.4-0.9-3.4-2.5c0-1.9,1.6-2.5,3.6-2.7l5.2-0.6v1.4H87.9z M96.7,8.9c0.9-0.5,1.9-0.8,2.9-0.8c3.4,0,5.2,2.6,5.2,6.1v7.6h-1.6
		v-7.4c0-2.7-1.2-4.7-4-4.7c-2.5,0-4.7,2-4.7,5.1v6.9H93V8.4h1.5v2.8C95.1,10.2,95.9,9.5,96.7,8.9z M119,19.2v-6.4
		c0-3-2.1-4.7-5.4-4.7c-2.8,0-5.2,1.5-6,3.7l1.3,0.7c0.5-1.7,2.4-2.9,4.6-2.9c2.4,0,3.9,1.3,3.9,3.2v0.6L112,14
		c-2.9,0.3-4.9,1.5-4.9,4.1c0,2.5,2.1,3.9,4.8,3.9c2.3,0,4.6-0.9,5.7-2.7v0.4c0.1,1.7,1.4,2.5,3.5,2.1v-1.4
		C119.8,20.6,119,20.4,119,19.2z M117.5,16.2c0,3-2.9,4.4-5.5,4.4c-2,0-3.4-0.9-3.4-2.5c0-1.9,1.6-2.5,3.6-2.7l5.2-0.6v1.4H117.5z
		 M188.9,5.1c0,1.1-0.9,2.1-2.1,2.1c-1.1,0-2.1-0.9-2.1-2.1c0-1.1,0.9-2.1,2.1-2.1C187.9,3,188.9,3.9,188.9,5.1z"/>
</g>
</svg>
